<?xml version="1.0" encoding="UTF-8"?>
<svg xmlns="http://www.w3.org/2000/svg" xmlns:xlink="http://www.w3.org/1999/xlink" width="744pt" height="518pt" viewBox="0 0 744 518" version="1.1">
<g id="surface6">
<rect x="0" y="0" width="744" height="518" style="fill:rgb(100%,100%,100%);fill-opacity:1;stroke:none;"/>
<path style=" stroke:none;fill-rule:nonzero;fill:rgb(0%,0%,0%);fill-opacity:1;" d="M 152.066406 257.628906 L 41.414063 257.628906 L 41.414063 143.015625 L 152.066406 143.015625 Z M 152.066406 257.628906 "/>
<path style=" stroke:none;fill-rule:nonzero;fill:rgb(0%,0%,0%);fill-opacity:1;" d="M 373.371094 486.859375 L 262.71875 486.859375 L 262.71875 372.242188 L 373.371094 372.242188 Z M 373.371094 486.859375 "/>
<path style=" stroke:none;fill-rule:nonzero;fill:rgb(0%,0%,0%);fill-opacity:1;" d="M 373.371094 257.628906 L 262.71875 257.628906 L 262.71875 143.015625 L 373.371094 143.015625 Z M 373.371094 257.628906 "/>
<path style=" stroke:none;fill-rule:nonzero;fill:rgb(0%,0%,0%);fill-opacity:1;" d="M 594.671875 486.859375 L 484.023438 486.859375 L 484.023438 372.242188 L 594.671875 372.242188 Z M 594.671875 486.859375 "/>
<path style=" stroke:none;fill-rule:nonzero;fill:rgb(0%,0%,0%);fill-opacity:1;" d="M 262.71875 143.015625 L 152.066406 143.015625 L 152.066406 28.402344 L 262.71875 28.402344 Z M 262.71875 143.015625 "/>
<path style=" stroke:none;fill-rule:nonzero;fill:rgb(0%,0%,0%);fill-opacity:1;" d="M 484.023438 372.242188 L 373.371094 372.242188 L 373.371094 257.628906 L 484.023438 257.628906 Z M 484.023438 372.242188 "/>
<path style=" stroke:none;fill-rule:nonzero;fill:rgb(0%,0%,0%);fill-opacity:1;" d="M 484.023438 143.015625 L 373.371094 143.015625 L 373.371094 28.402344 L 484.023438 28.402344 Z M 484.023438 143.015625 "/>
<path style=" stroke:none;fill-rule:nonzero;fill:rgb(0%,0%,0%);fill-opacity:1;" d="M 705.324219 372.242188 L 594.671875 372.242188 L 594.671875 257.628906 L 705.324219 257.628906 Z M 705.324219 372.242188 "/>
</g>
</svg>
