<?xml version="1.0" encoding="UTF-8"?>
<svg xmlns="http://www.w3.org/2000/svg" xmlns:xlink="http://www.w3.org/1999/xlink" width="477pt" height="324pt" viewBox="0 0 477 324" version="1.1">
<g id="surface11">
<rect x="0" y="0" width="477" height="324" style="fill:rgb(100%,100%,100%);fill-opacity:1;stroke:none;"/>
<path style=" stroke:none;fill-rule:nonzero;fill:rgb(0%,0%,0%);fill-opacity:1;" d="M 98.824219 301.675781 L 169.347656 301.675781 L 134.085938 231.152344 Z M 98.824219 301.675781 "/>
<path style=" stroke:none;fill-rule:nonzero;fill:rgb(0%,0%,0%);fill-opacity:1;" d="M 239.871094 301.675781 L 310.394531 301.675781 L 275.132813 231.152344 Z M 239.871094 301.675781 "/>
<path style=" stroke:none;fill-rule:nonzero;fill:rgb(0%,0%,0%);fill-opacity:1;" d="M 169.347656 160.628906 L 239.871094 160.628906 L 204.609375 90.105469 Z M 169.347656 160.628906 "/>
<path style=" stroke:none;fill-rule:nonzero;fill:rgb(0%,0%,0%);fill-opacity:1;" d="M 239.871094 301.675781 L 169.347656 301.675781 L 204.609375 231.152344 Z M 239.871094 301.675781 "/>
<path style=" stroke:none;fill-rule:nonzero;fill:rgb(0%,0%,0%);fill-opacity:1;" d="M 310.394531 301.675781 L 380.914063 301.675781 L 345.65625 231.152344 Z M 310.394531 301.675781 "/>
<path style=" stroke:none;fill-rule:nonzero;fill:rgb(0%,0%,0%);fill-opacity:1;" d="M 239.871094 160.628906 L 310.394531 160.628906 L 275.132813 90.105469 Z M 239.871094 160.628906 "/>
<path style=" stroke:none;fill-rule:nonzero;fill:rgb(0%,0%,0%);fill-opacity:1;" d="M 169.347656 160.628906 L 134.085938 231.152344 L 204.609375 231.152344 Z M 169.347656 160.628906 "/>
<path style=" stroke:none;fill-rule:nonzero;fill:rgb(0%,0%,0%);fill-opacity:1;" d="M 275.132813 231.152344 L 310.394531 160.628906 L 345.65625 231.152344 Z M 275.132813 231.152344 "/>
<path style=" stroke:none;fill-rule:nonzero;fill:rgb(0%,0%,0%);fill-opacity:1;" d="M 204.609375 90.105469 L 275.132813 90.105469 L 239.871094 19.585938 Z M 204.609375 90.105469 "/>
</g>
</svg>
