<?xml version="1.0" encoding="UTF-8"?>
<svg xmlns="http://www.w3.org/2000/svg" xmlns:xlink="http://www.w3.org/1999/xlink" width="465pt" height="300pt" viewBox="0 0 465 300" version="1.1">
<g id="surface1">
<rect x="0" y="0" width="465" height="300" style="fill:rgb(100%,100%,100%);fill-opacity:1;stroke:none;"/>
<path style=" stroke:none;fill-rule:nonzero;fill:rgb(0%,0%,0%);fill-opacity:1;" d="M 120 278.765625 L 103.734375 278.765625 L 111.867188 262.5 Z M 120 278.765625 "/>
<path style=" stroke:none;fill-rule:nonzero;fill:rgb(0%,0%,0%);fill-opacity:1;" d="M 250.136719 278.765625 L 233.871094 278.765625 L 242.003906 262.5 Z M 250.136719 278.765625 "/>
<path style=" stroke:none;fill-rule:nonzero;fill:rgb(0%,0%,0%);fill-opacity:1;" d="M 185.070313 148.628906 L 168.800781 148.628906 L 176.933594 132.363281 Z M 185.070313 148.628906 "/>
<path style=" stroke:none;fill-rule:nonzero;fill:rgb(0%,0%,0%);fill-opacity:1;" d="M 185.070313 278.765625 L 168.800781 278.765625 L 176.933594 262.5 Z M 185.070313 278.765625 "/>
<path style=" stroke:none;fill-rule:nonzero;fill:rgb(0%,0%,0%);fill-opacity:1;" d="M 315.207031 278.765625 L 298.9375 278.765625 L 307.070313 262.5 Z M 315.207031 278.765625 "/>
<path style=" stroke:none;fill-rule:nonzero;fill:rgb(0%,0%,0%);fill-opacity:1;" d="M 250.136719 148.628906 L 233.871094 148.628906 L 242.003906 132.363281 Z M 250.136719 148.628906 "/>
<path style=" stroke:none;fill-rule:nonzero;fill:rgb(0%,0%,0%);fill-opacity:1;" d="M 152.535156 213.699219 L 136.265625 213.699219 L 144.402344 197.429688 Z M 152.535156 213.699219 "/>
<path style=" stroke:none;fill-rule:nonzero;fill:rgb(0%,0%,0%);fill-opacity:1;" d="M 282.671875 213.699219 L 266.402344 213.699219 L 274.539063 197.429688 Z M 282.671875 213.699219 "/>
<path style=" stroke:none;fill-rule:nonzero;fill:rgb(0%,0%,0%);fill-opacity:1;" d="M 217.601563 83.5625 L 201.335938 83.5625 L 209.46875 67.292969 Z M 217.601563 83.5625 "/>
<path style=" stroke:none;fill-rule:nonzero;fill:rgb(0%,0%,0%);fill-opacity:1;" d="M 152.535156 278.765625 L 136.265625 278.765625 L 144.402344 262.5 Z M 152.535156 278.765625 "/>
<path style=" stroke:none;fill-rule:nonzero;fill:rgb(0%,0%,0%);fill-opacity:1;" d="M 282.671875 278.765625 L 266.402344 278.765625 L 274.539063 262.5 Z M 282.671875 278.765625 "/>
<path style=" stroke:none;fill-rule:nonzero;fill:rgb(0%,0%,0%);fill-opacity:1;" d="M 217.601563 148.628906 L 201.335938 148.628906 L 209.46875 132.363281 Z M 217.601563 148.628906 "/>
<path style=" stroke:none;fill-rule:nonzero;fill:rgb(0%,0%,0%);fill-opacity:1;" d="M 217.601563 278.765625 L 201.335938 278.765625 L 209.46875 262.5 Z M 217.601563 278.765625 "/>
<path style=" stroke:none;fill-rule:nonzero;fill:rgb(0%,0%,0%);fill-opacity:1;" d="M 347.738281 278.765625 L 331.472656 278.765625 L 339.605469 262.5 Z M 347.738281 278.765625 "/>
<path style=" stroke:none;fill-rule:nonzero;fill:rgb(0%,0%,0%);fill-opacity:1;" d="M 282.671875 148.628906 L 266.402344 148.628906 L 274.539063 132.363281 Z M 282.671875 148.628906 "/>
<path style=" stroke:none;fill-rule:nonzero;fill:rgb(0%,0%,0%);fill-opacity:1;" d="M 185.070313 213.699219 L 168.800781 213.699219 L 176.933594 197.429688 Z M 185.070313 213.699219 "/>
<path style=" stroke:none;fill-rule:nonzero;fill:rgb(0%,0%,0%);fill-opacity:1;" d="M 315.207031 213.699219 L 298.9375 213.699219 L 307.070313 197.429688 Z M 315.207031 213.699219 "/>
<path style=" stroke:none;fill-rule:nonzero;fill:rgb(0%,0%,0%);fill-opacity:1;" d="M 250.136719 83.5625 L 233.871094 83.5625 L 242.003906 67.292969 Z M 250.136719 83.5625 "/>
<path style=" stroke:none;fill-rule:nonzero;fill:rgb(0%,0%,0%);fill-opacity:1;" d="M 136.265625 246.234375 L 120 246.234375 L 128.132813 229.964844 Z M 136.265625 246.234375 "/>
<path style=" stroke:none;fill-rule:nonzero;fill:rgb(0%,0%,0%);fill-opacity:1;" d="M 266.402344 246.234375 L 250.136719 246.234375 L 258.269531 229.964844 Z M 266.402344 246.234375 "/>
<path style=" stroke:none;fill-rule:nonzero;fill:rgb(0%,0%,0%);fill-opacity:1;" d="M 201.335938 116.097656 L 185.070313 116.097656 L 193.203125 99.828125 Z M 201.335938 116.097656 "/>
<path style=" stroke:none;fill-rule:nonzero;fill:rgb(0%,0%,0%);fill-opacity:1;" d="M 201.335938 246.234375 L 185.070313 246.234375 L 193.203125 229.964844 Z M 201.335938 246.234375 "/>
<path style=" stroke:none;fill-rule:nonzero;fill:rgb(0%,0%,0%);fill-opacity:1;" d="M 331.472656 246.234375 L 315.207031 246.234375 L 323.339844 229.964844 Z M 331.472656 246.234375 "/>
<path style=" stroke:none;fill-rule:nonzero;fill:rgb(0%,0%,0%);fill-opacity:1;" d="M 266.402344 116.097656 L 250.136719 116.097656 L 258.269531 99.828125 Z M 266.402344 116.097656 "/>
<path style=" stroke:none;fill-rule:nonzero;fill:rgb(0%,0%,0%);fill-opacity:1;" d="M 168.800781 181.164063 L 152.535156 181.164063 L 160.667969 164.898438 Z M 168.800781 181.164063 "/>
<path style=" stroke:none;fill-rule:nonzero;fill:rgb(0%,0%,0%);fill-opacity:1;" d="M 298.9375 181.164063 L 282.671875 181.164063 L 290.804688 164.898438 Z M 298.9375 181.164063 "/>
<path style=" stroke:none;fill-rule:nonzero;fill:rgb(0%,0%,0%);fill-opacity:1;" d="M 233.871094 51.027344 L 217.601563 51.027344 L 225.734375 34.761719 Z M 233.871094 51.027344 "/>
<path style=" stroke:none;fill-rule:nonzero;fill:rgb(0%,0%,0%);fill-opacity:1;" d="M 136.265625 278.765625 L 120 278.765625 L 128.132813 262.5 Z M 136.265625 278.765625 "/>
<path style=" stroke:none;fill-rule:nonzero;fill:rgb(0%,0%,0%);fill-opacity:1;" d="M 266.402344 278.765625 L 250.136719 278.765625 L 258.269531 262.5 Z M 266.402344 278.765625 "/>
<path style=" stroke:none;fill-rule:nonzero;fill:rgb(0%,0%,0%);fill-opacity:1;" d="M 201.335938 148.628906 L 185.070313 148.628906 L 193.203125 132.363281 Z M 201.335938 148.628906 "/>
<path style=" stroke:none;fill-rule:nonzero;fill:rgb(0%,0%,0%);fill-opacity:1;" d="M 201.335938 278.765625 L 185.070313 278.765625 L 193.203125 262.5 Z M 201.335938 278.765625 "/>
<path style=" stroke:none;fill-rule:nonzero;fill:rgb(0%,0%,0%);fill-opacity:1;" d="M 331.472656 278.765625 L 315.207031 278.765625 L 323.339844 262.5 Z M 331.472656 278.765625 "/>
<path style=" stroke:none;fill-rule:nonzero;fill:rgb(0%,0%,0%);fill-opacity:1;" d="M 266.402344 148.628906 L 250.136719 148.628906 L 258.269531 132.363281 Z M 266.402344 148.628906 "/>
<path style=" stroke:none;fill-rule:nonzero;fill:rgb(0%,0%,0%);fill-opacity:1;" d="M 168.800781 213.699219 L 152.535156 213.699219 L 160.667969 197.429688 Z M 168.800781 213.699219 "/>
<path style=" stroke:none;fill-rule:nonzero;fill:rgb(0%,0%,0%);fill-opacity:1;" d="M 298.9375 213.699219 L 282.671875 213.699219 L 290.804688 197.429688 Z M 298.9375 213.699219 "/>
<path style=" stroke:none;fill-rule:nonzero;fill:rgb(0%,0%,0%);fill-opacity:1;" d="M 233.871094 83.5625 L 217.601563 83.5625 L 225.734375 67.292969 Z M 233.871094 83.5625 "/>
<path style=" stroke:none;fill-rule:nonzero;fill:rgb(0%,0%,0%);fill-opacity:1;" d="M 168.800781 278.765625 L 152.535156 278.765625 L 160.667969 262.5 Z M 168.800781 278.765625 "/>
<path style=" stroke:none;fill-rule:nonzero;fill:rgb(0%,0%,0%);fill-opacity:1;" d="M 298.9375 278.765625 L 282.671875 278.765625 L 290.804688 262.5 Z M 298.9375 278.765625 "/>
<path style=" stroke:none;fill-rule:nonzero;fill:rgb(0%,0%,0%);fill-opacity:1;" d="M 233.871094 148.628906 L 217.601563 148.628906 L 225.734375 132.363281 Z M 233.871094 148.628906 "/>
<path style=" stroke:none;fill-rule:nonzero;fill:rgb(0%,0%,0%);fill-opacity:1;" d="M 233.871094 278.765625 L 217.601563 278.765625 L 225.734375 262.5 Z M 233.871094 278.765625 "/>
<path style=" stroke:none;fill-rule:nonzero;fill:rgb(0%,0%,0%);fill-opacity:1;" d="M 364.007813 278.765625 L 347.738281 278.765625 L 355.875 262.5 Z M 364.007813 278.765625 "/>
<path style=" stroke:none;fill-rule:nonzero;fill:rgb(0%,0%,0%);fill-opacity:1;" d="M 298.9375 148.628906 L 282.671875 148.628906 L 290.804688 132.363281 Z M 298.9375 148.628906 "/>
<path style=" stroke:none;fill-rule:nonzero;fill:rgb(0%,0%,0%);fill-opacity:1;" d="M 201.335938 213.699219 L 185.070313 213.699219 L 193.203125 197.429688 Z M 201.335938 213.699219 "/>
<path style=" stroke:none;fill-rule:nonzero;fill:rgb(0%,0%,0%);fill-opacity:1;" d="M 331.472656 213.699219 L 315.207031 213.699219 L 323.339844 197.429688 Z M 331.472656 213.699219 "/>
<path style=" stroke:none;fill-rule:nonzero;fill:rgb(0%,0%,0%);fill-opacity:1;" d="M 266.402344 83.5625 L 250.136719 83.5625 L 258.269531 67.292969 Z M 266.402344 83.5625 "/>
<path style=" stroke:none;fill-rule:nonzero;fill:rgb(0%,0%,0%);fill-opacity:1;" d="M 152.535156 246.234375 L 136.265625 246.234375 L 144.402344 229.964844 Z M 152.535156 246.234375 "/>
<path style=" stroke:none;fill-rule:nonzero;fill:rgb(0%,0%,0%);fill-opacity:1;" d="M 282.671875 246.234375 L 266.402344 246.234375 L 274.539063 229.964844 Z M 282.671875 246.234375 "/>
<path style=" stroke:none;fill-rule:nonzero;fill:rgb(0%,0%,0%);fill-opacity:1;" d="M 217.601563 116.097656 L 201.335938 116.097656 L 209.46875 99.828125 Z M 217.601563 116.097656 "/>
<path style=" stroke:none;fill-rule:nonzero;fill:rgb(0%,0%,0%);fill-opacity:1;" d="M 217.601563 246.234375 L 201.335938 246.234375 L 209.46875 229.964844 Z M 217.601563 246.234375 "/>
<path style=" stroke:none;fill-rule:nonzero;fill:rgb(0%,0%,0%);fill-opacity:1;" d="M 347.738281 246.234375 L 331.472656 246.234375 L 339.605469 229.964844 Z M 347.738281 246.234375 "/>
<path style=" stroke:none;fill-rule:nonzero;fill:rgb(0%,0%,0%);fill-opacity:1;" d="M 282.671875 116.097656 L 266.402344 116.097656 L 274.539063 99.828125 Z M 282.671875 116.097656 "/>
<path style=" stroke:none;fill-rule:nonzero;fill:rgb(0%,0%,0%);fill-opacity:1;" d="M 185.070313 181.164063 L 168.800781 181.164063 L 176.933594 164.898438 Z M 185.070313 181.164063 "/>
<path style=" stroke:none;fill-rule:nonzero;fill:rgb(0%,0%,0%);fill-opacity:1;" d="M 315.207031 181.164063 L 298.9375 181.164063 L 307.070313 164.898438 Z M 315.207031 181.164063 "/>
<path style=" stroke:none;fill-rule:nonzero;fill:rgb(0%,0%,0%);fill-opacity:1;" d="M 250.136719 51.027344 L 233.871094 51.027344 L 242.003906 34.761719 Z M 250.136719 51.027344 "/>
<path style=" stroke:none;fill-rule:nonzero;fill:rgb(0%,0%,0%);fill-opacity:1;" d="M 128.132813 262.5 L 111.867188 262.5 L 120 246.234375 Z M 128.132813 262.5 "/>
<path style=" stroke:none;fill-rule:nonzero;fill:rgb(0%,0%,0%);fill-opacity:1;" d="M 258.269531 262.5 L 242.003906 262.5 L 250.136719 246.234375 Z M 258.269531 262.5 "/>
<path style=" stroke:none;fill-rule:nonzero;fill:rgb(0%,0%,0%);fill-opacity:1;" d="M 193.203125 132.363281 L 176.933594 132.363281 L 185.070313 116.097656 Z M 193.203125 132.363281 "/>
<path style=" stroke:none;fill-rule:nonzero;fill:rgb(0%,0%,0%);fill-opacity:1;" d="M 193.203125 262.5 L 176.933594 262.5 L 185.070313 246.234375 Z M 193.203125 262.5 "/>
<path style=" stroke:none;fill-rule:nonzero;fill:rgb(0%,0%,0%);fill-opacity:1;" d="M 323.339844 262.5 L 307.070313 262.5 L 315.207031 246.234375 Z M 323.339844 262.5 "/>
<path style=" stroke:none;fill-rule:nonzero;fill:rgb(0%,0%,0%);fill-opacity:1;" d="M 258.269531 132.363281 L 242.003906 132.363281 L 250.136719 116.097656 Z M 258.269531 132.363281 "/>
<path style=" stroke:none;fill-rule:nonzero;fill:rgb(0%,0%,0%);fill-opacity:1;" d="M 160.667969 197.429688 L 144.402344 197.429688 L 152.535156 181.164063 Z M 160.667969 197.429688 "/>
<path style=" stroke:none;fill-rule:nonzero;fill:rgb(0%,0%,0%);fill-opacity:1;" d="M 290.804688 197.429688 L 274.539063 197.429688 L 282.671875 181.164063 Z M 290.804688 197.429688 "/>
<path style=" stroke:none;fill-rule:nonzero;fill:rgb(0%,0%,0%);fill-opacity:1;" d="M 225.734375 67.292969 L 209.46875 67.292969 L 217.601563 51.027344 Z M 225.734375 67.292969 "/>
<path style=" stroke:none;fill-rule:nonzero;fill:rgb(0%,0%,0%);fill-opacity:1;" d="M 160.667969 262.5 L 144.402344 262.5 L 152.535156 246.234375 Z M 160.667969 262.5 "/>
<path style=" stroke:none;fill-rule:nonzero;fill:rgb(0%,0%,0%);fill-opacity:1;" d="M 290.804688 262.5 L 274.539063 262.5 L 282.671875 246.234375 Z M 290.804688 262.5 "/>
<path style=" stroke:none;fill-rule:nonzero;fill:rgb(0%,0%,0%);fill-opacity:1;" d="M 225.734375 132.363281 L 209.46875 132.363281 L 217.601563 116.097656 Z M 225.734375 132.363281 "/>
<path style=" stroke:none;fill-rule:nonzero;fill:rgb(0%,0%,0%);fill-opacity:1;" d="M 225.734375 262.5 L 209.46875 262.5 L 217.601563 246.234375 Z M 225.734375 262.5 "/>
<path style=" stroke:none;fill-rule:nonzero;fill:rgb(0%,0%,0%);fill-opacity:1;" d="M 355.875 262.5 L 339.605469 262.5 L 347.738281 246.234375 Z M 355.875 262.5 "/>
<path style=" stroke:none;fill-rule:nonzero;fill:rgb(0%,0%,0%);fill-opacity:1;" d="M 290.804688 132.363281 L 274.539063 132.363281 L 282.671875 116.097656 Z M 290.804688 132.363281 "/>
<path style=" stroke:none;fill-rule:nonzero;fill:rgb(0%,0%,0%);fill-opacity:1;" d="M 193.203125 197.429688 L 176.933594 197.429688 L 185.070313 181.164063 Z M 193.203125 197.429688 "/>
<path style=" stroke:none;fill-rule:nonzero;fill:rgb(0%,0%,0%);fill-opacity:1;" d="M 323.339844 197.429688 L 307.070313 197.429688 L 315.207031 181.164063 Z M 323.339844 197.429688 "/>
<path style=" stroke:none;fill-rule:nonzero;fill:rgb(0%,0%,0%);fill-opacity:1;" d="M 258.269531 67.292969 L 242.003906 67.292969 L 250.136719 51.027344 Z M 258.269531 67.292969 "/>
<path style=" stroke:none;fill-rule:nonzero;fill:rgb(0%,0%,0%);fill-opacity:1;" d="M 144.402344 229.964844 L 128.132813 229.964844 L 136.265625 213.699219 Z M 144.402344 229.964844 "/>
<path style=" stroke:none;fill-rule:nonzero;fill:rgb(0%,0%,0%);fill-opacity:1;" d="M 274.539063 229.964844 L 258.269531 229.964844 L 266.402344 213.699219 Z M 274.539063 229.964844 "/>
<path style=" stroke:none;fill-rule:nonzero;fill:rgb(0%,0%,0%);fill-opacity:1;" d="M 209.46875 99.828125 L 193.203125 99.828125 L 201.335938 83.5625 Z M 209.46875 99.828125 "/>
<path style=" stroke:none;fill-rule:nonzero;fill:rgb(0%,0%,0%);fill-opacity:1;" d="M 209.46875 229.964844 L 193.203125 229.964844 L 201.335938 213.699219 Z M 209.46875 229.964844 "/>
<path style=" stroke:none;fill-rule:nonzero;fill:rgb(0%,0%,0%);fill-opacity:1;" d="M 339.605469 229.964844 L 323.339844 229.964844 L 331.472656 213.699219 Z M 339.605469 229.964844 "/>
<path style=" stroke:none;fill-rule:nonzero;fill:rgb(0%,0%,0%);fill-opacity:1;" d="M 274.539063 99.828125 L 258.269531 99.828125 L 266.402344 83.5625 Z M 274.539063 99.828125 "/>
<path style=" stroke:none;fill-rule:nonzero;fill:rgb(0%,0%,0%);fill-opacity:1;" d="M 176.933594 164.898438 L 160.667969 164.898438 L 168.800781 148.628906 Z M 176.933594 164.898438 "/>
<path style=" stroke:none;fill-rule:nonzero;fill:rgb(0%,0%,0%);fill-opacity:1;" d="M 307.070313 164.898438 L 290.804688 164.898438 L 298.9375 148.628906 Z M 307.070313 164.898438 "/>
<path style=" stroke:none;fill-rule:nonzero;fill:rgb(0%,0%,0%);fill-opacity:1;" d="M 242.003906 34.761719 L 225.734375 34.761719 L 233.871094 18.492188 Z M 242.003906 34.761719 "/>
</g>
</svg>
