<?xml version="1.0" encoding="UTF-8"?>
<svg xmlns="http://www.w3.org/2000/svg" xmlns:xlink="http://www.w3.org/1999/xlink" width="477pt" height="324pt" viewBox="0 0 477 324" version="1.1">
<g id="surface16">
<rect x="0" y="0" width="477" height="324" style="fill:rgb(100%,100%,100%);fill-opacity:1;stroke:none;"/>
<path style=" stroke:none;fill-rule:nonzero;fill:rgb(0%,0%,0%);fill-opacity:1;" d="M 98.824219 301.675781 L 134.085938 301.675781 L 116.453125 266.414063 Z M 98.824219 301.675781 "/>
<path style=" stroke:none;fill-rule:nonzero;fill:rgb(0%,0%,0%);fill-opacity:1;" d="M 239.871094 301.675781 L 275.132813 301.675781 L 257.5 266.414063 Z M 239.871094 301.675781 "/>
<path style=" stroke:none;fill-rule:nonzero;fill:rgb(0%,0%,0%);fill-opacity:1;" d="M 169.347656 160.628906 L 204.609375 160.628906 L 186.976563 125.367188 Z M 169.347656 160.628906 "/>
<path style=" stroke:none;fill-rule:nonzero;fill:rgb(0%,0%,0%);fill-opacity:1;" d="M 169.347656 301.675781 L 204.609375 301.675781 L 186.976563 266.414063 Z M 169.347656 301.675781 "/>
<path style=" stroke:none;fill-rule:nonzero;fill:rgb(0%,0%,0%);fill-opacity:1;" d="M 310.394531 301.675781 L 345.65625 301.675781 L 328.023438 266.414063 Z M 310.394531 301.675781 "/>
<path style=" stroke:none;fill-rule:nonzero;fill:rgb(0%,0%,0%);fill-opacity:1;" d="M 239.871094 160.628906 L 275.132813 160.628906 L 257.5 125.367188 Z M 239.871094 160.628906 "/>
<path style=" stroke:none;fill-rule:nonzero;fill:rgb(0%,0%,0%);fill-opacity:1;" d="M 134.085938 231.152344 L 169.347656 231.152344 L 151.714844 195.890625 Z M 134.085938 231.152344 "/>
<path style=" stroke:none;fill-rule:nonzero;fill:rgb(0%,0%,0%);fill-opacity:1;" d="M 275.132813 231.152344 L 310.394531 231.152344 L 292.761719 195.890625 Z M 275.132813 231.152344 "/>
<path style=" stroke:none;fill-rule:nonzero;fill:rgb(0%,0%,0%);fill-opacity:1;" d="M 204.609375 90.105469 L 239.871094 90.105469 L 222.238281 54.84375 Z M 204.609375 90.105469 "/>
<path style=" stroke:none;fill-rule:nonzero;fill:rgb(0%,0%,0%);fill-opacity:1;" d="M 169.347656 301.675781 L 134.085938 301.675781 L 151.714844 266.414063 Z M 169.347656 301.675781 "/>
<path style=" stroke:none;fill-rule:nonzero;fill:rgb(0%,0%,0%);fill-opacity:1;" d="M 310.394531 301.675781 L 275.132813 301.675781 L 292.761719 266.414063 Z M 310.394531 301.675781 "/>
<path style=" stroke:none;fill-rule:nonzero;fill:rgb(0%,0%,0%);fill-opacity:1;" d="M 239.871094 160.628906 L 204.609375 160.628906 L 222.238281 125.367188 Z M 239.871094 160.628906 "/>
<path style=" stroke:none;fill-rule:nonzero;fill:rgb(0%,0%,0%);fill-opacity:1;" d="M 239.871094 301.675781 L 204.609375 301.675781 L 222.238281 266.414063 Z M 239.871094 301.675781 "/>
<path style=" stroke:none;fill-rule:nonzero;fill:rgb(0%,0%,0%);fill-opacity:1;" d="M 345.65625 301.675781 L 380.914063 301.675781 L 363.285156 266.414063 Z M 345.65625 301.675781 "/>
<path style=" stroke:none;fill-rule:nonzero;fill:rgb(0%,0%,0%);fill-opacity:1;" d="M 275.132813 160.628906 L 310.394531 160.628906 L 292.761719 125.367188 Z M 275.132813 160.628906 "/>
<path style=" stroke:none;fill-rule:nonzero;fill:rgb(0%,0%,0%);fill-opacity:1;" d="M 169.347656 231.152344 L 204.609375 231.152344 L 186.976563 195.890625 Z M 169.347656 231.152344 "/>
<path style=" stroke:none;fill-rule:nonzero;fill:rgb(0%,0%,0%);fill-opacity:1;" d="M 310.394531 231.152344 L 345.65625 231.152344 L 328.023438 195.890625 Z M 310.394531 231.152344 "/>
<path style=" stroke:none;fill-rule:nonzero;fill:rgb(0%,0%,0%);fill-opacity:1;" d="M 239.871094 90.105469 L 275.132813 90.105469 L 257.5 54.84375 Z M 239.871094 90.105469 "/>
<path style=" stroke:none;fill-rule:nonzero;fill:rgb(0%,0%,0%);fill-opacity:1;" d="M 134.085938 231.152344 L 116.453125 266.414063 L 151.714844 266.414063 Z M 134.085938 231.152344 "/>
<path style=" stroke:none;fill-rule:nonzero;fill:rgb(0%,0%,0%);fill-opacity:1;" d="M 275.132813 231.152344 L 257.5 266.414063 L 292.761719 266.414063 Z M 275.132813 231.152344 "/>
<path style=" stroke:none;fill-rule:nonzero;fill:rgb(0%,0%,0%);fill-opacity:1;" d="M 204.609375 90.105469 L 186.976563 125.367188 L 222.238281 125.367188 Z M 204.609375 90.105469 "/>
<path style=" stroke:none;fill-rule:nonzero;fill:rgb(0%,0%,0%);fill-opacity:1;" d="M 186.976563 266.414063 L 204.609375 231.152344 L 222.238281 266.414063 Z M 186.976563 266.414063 "/>
<path style=" stroke:none;fill-rule:nonzero;fill:rgb(0%,0%,0%);fill-opacity:1;" d="M 328.023438 266.414063 L 345.65625 231.152344 L 363.285156 266.414063 Z M 328.023438 266.414063 "/>
<path style=" stroke:none;fill-rule:nonzero;fill:rgb(0%,0%,0%);fill-opacity:1;" d="M 257.5 125.367188 L 275.132813 90.105469 L 292.761719 125.367188 Z M 257.5 125.367188 "/>
<path style=" stroke:none;fill-rule:nonzero;fill:rgb(0%,0%,0%);fill-opacity:1;" d="M 169.347656 160.628906 L 151.714844 195.890625 L 186.976563 195.890625 Z M 169.347656 160.628906 "/>
<path style=" stroke:none;fill-rule:nonzero;fill:rgb(0%,0%,0%);fill-opacity:1;" d="M 292.761719 195.890625 L 310.394531 160.628906 L 328.023438 195.890625 Z M 292.761719 195.890625 "/>
<path style=" stroke:none;fill-rule:nonzero;fill:rgb(0%,0%,0%);fill-opacity:1;" d="M 222.238281 54.84375 L 257.5 54.84375 L 239.871094 19.585938 Z M 222.238281 54.84375 "/>
</g>
</svg>
