<?xml version="1.0" encoding="UTF-8"?>
<svg xmlns="http://www.w3.org/2000/svg" xmlns:xlink="http://www.w3.org/1999/xlink" width="477pt" height="363pt" viewBox="0 0 477 363" version="1.1">
<g id="surface56">
<rect x="0" y="0" width="477" height="363" style="fill:rgb(100%,100%,100%);fill-opacity:1;stroke:none;"/>
<path style=" stroke:none;fill-rule:nonzero;fill:rgb(0%,0%,0%);fill-opacity:1;" d="M 245.75 30.175781 L 239.871094 33.117188 L 233.988281 30.175781 L 233.988281 24.296875 L 239.871094 21.355469 L 245.75 24.296875 Z M 245.75 30.175781 "/>
<path style=" stroke:none;fill-rule:nonzero;fill:rgb(0%,0%,0%);fill-opacity:1;" d="M 351.597656 83.101563 L 345.71875 86.042969 L 339.839844 83.101563 L 339.839844 77.222656 L 345.71875 74.28125 L 351.597656 77.222656 Z M 351.597656 83.101563 "/>
<path style=" stroke:none;fill-rule:nonzero;fill:rgb(0%,0%,0%);fill-opacity:1;" d="M 139.902344 83.101563 L 134.019531 86.042969 L 128.140625 83.101563 L 128.140625 77.222656 L 134.019531 74.28125 L 139.902344 77.222656 Z M 139.902344 83.101563 "/>
<path style=" stroke:none;fill-rule:nonzero;fill:rgb(0%,0%,0%);fill-opacity:1;" d="M 139.902344 188.949219 L 134.019531 191.890625 L 128.140625 188.949219 L 128.140625 183.070313 L 134.019531 180.128906 L 139.902344 183.070313 Z M 139.902344 188.949219 "/>
<path style=" stroke:none;fill-rule:nonzero;fill:rgb(0%,0%,0%);fill-opacity:1;" d="M 351.597656 188.949219 L 345.71875 191.890625 L 339.839844 188.949219 L 339.839844 183.070313 L 345.71875 180.128906 L 351.597656 183.070313 Z M 351.597656 188.949219 "/>
<path style=" stroke:none;fill-rule:nonzero;fill:rgb(0%,0%,0%);fill-opacity:1;" d="M 245.75 241.875 L 239.871094 244.816406 L 233.988281 241.875 L 233.988281 235.996094 L 239.871094 233.054688 L 245.75 235.996094 Z M 245.75 241.875 "/>
<path style=" stroke:none;fill-rule:nonzero;fill:rgb(0%,0%,0%);fill-opacity:1;" d="M 281.035156 47.820313 L 275.152344 50.757813 L 269.273438 47.820313 L 269.273438 41.9375 L 275.152344 39 L 281.035156 41.9375 Z M 281.035156 47.820313 "/>
<path style=" stroke:none;fill-rule:nonzero;fill:rgb(0%,0%,0%);fill-opacity:1;" d="M 386.882813 100.742188 L 381 103.683594 L 375.121094 100.742188 L 375.121094 94.863281 L 381 91.921875 L 386.882813 94.863281 Z M 386.882813 100.742188 "/>
<path style=" stroke:none;fill-rule:nonzero;fill:rgb(0%,0%,0%);fill-opacity:1;" d="M 175.183594 100.742188 L 169.304688 103.683594 L 163.421875 100.742188 L 163.421875 94.863281 L 169.304688 91.921875 L 175.183594 94.863281 Z M 175.183594 100.742188 "/>
<path style=" stroke:none;fill-rule:nonzero;fill:rgb(0%,0%,0%);fill-opacity:1;" d="M 175.183594 206.59375 L 169.304688 209.53125 L 163.421875 206.59375 L 163.421875 200.710938 L 169.304688 197.773438 L 175.183594 200.710938 Z M 175.183594 206.59375 "/>
<path style=" stroke:none;fill-rule:nonzero;fill:rgb(0%,0%,0%);fill-opacity:1;" d="M 386.882813 206.59375 L 381 209.53125 L 375.121094 206.59375 L 375.121094 200.710938 L 381 197.773438 L 386.882813 200.710938 Z M 386.882813 206.59375 "/>
<path style=" stroke:none;fill-rule:nonzero;fill:rgb(0%,0%,0%);fill-opacity:1;" d="M 281.035156 259.515625 L 275.152344 262.457031 L 269.273438 259.515625 L 269.273438 253.636719 L 275.152344 250.695313 L 281.035156 253.636719 Z M 281.035156 259.515625 "/>
<path style=" stroke:none;fill-rule:nonzero;fill:rgb(0%,0%,0%);fill-opacity:1;" d="M 210.46875 47.820313 L 204.585938 50.757813 L 198.707031 47.820313 L 198.707031 41.9375 L 204.585938 39 L 210.46875 41.9375 Z M 210.46875 47.820313 "/>
<path style=" stroke:none;fill-rule:nonzero;fill:rgb(0%,0%,0%);fill-opacity:1;" d="M 316.316406 100.742188 L 310.4375 103.683594 L 304.554688 100.742188 L 304.554688 94.863281 L 310.4375 91.921875 L 316.316406 94.863281 Z M 316.316406 100.742188 "/>
<path style=" stroke:none;fill-rule:nonzero;fill:rgb(0%,0%,0%);fill-opacity:1;" d="M 104.617188 100.742188 L 98.738281 103.683594 L 92.859375 100.742188 L 92.859375 94.863281 L 98.738281 91.921875 L 104.617188 94.863281 Z M 104.617188 100.742188 "/>
<path style=" stroke:none;fill-rule:nonzero;fill:rgb(0%,0%,0%);fill-opacity:1;" d="M 104.617188 206.59375 L 98.738281 209.53125 L 92.859375 206.59375 L 92.859375 200.710938 L 98.738281 197.773438 L 104.617188 200.710938 Z M 104.617188 206.59375 "/>
<path style=" stroke:none;fill-rule:nonzero;fill:rgb(0%,0%,0%);fill-opacity:1;" d="M 316.316406 206.59375 L 310.4375 209.53125 L 304.554688 206.59375 L 304.554688 200.710938 L 310.4375 197.773438 L 316.316406 200.710938 Z M 316.316406 206.59375 "/>
<path style=" stroke:none;fill-rule:nonzero;fill:rgb(0%,0%,0%);fill-opacity:1;" d="M 210.46875 259.515625 L 204.585938 262.457031 L 198.707031 259.515625 L 198.707031 253.636719 L 204.585938 250.695313 L 210.46875 253.636719 Z M 210.46875 259.515625 "/>
<path style=" stroke:none;fill-rule:nonzero;fill:rgb(0%,0%,0%);fill-opacity:1;" d="M 210.46875 83.101563 L 204.585938 86.042969 L 198.707031 83.101563 L 198.707031 77.222656 L 204.585938 74.28125 L 210.46875 77.222656 Z M 210.46875 83.101563 "/>
<path style=" stroke:none;fill-rule:nonzero;fill:rgb(0%,0%,0%);fill-opacity:1;" d="M 316.316406 136.027344 L 310.4375 138.964844 L 304.554688 136.027344 L 304.554688 130.144531 L 310.4375 127.207031 L 316.316406 130.144531 Z M 316.316406 136.027344 "/>
<path style=" stroke:none;fill-rule:nonzero;fill:rgb(0%,0%,0%);fill-opacity:1;" d="M 104.617188 136.027344 L 98.738281 138.964844 L 92.859375 136.027344 L 92.859375 130.144531 L 98.738281 127.207031 L 104.617188 130.144531 Z M 104.617188 136.027344 "/>
<path style=" stroke:none;fill-rule:nonzero;fill:rgb(0%,0%,0%);fill-opacity:1;" d="M 104.617188 241.875 L 98.738281 244.816406 L 92.859375 241.875 L 92.859375 235.996094 L 98.738281 233.054688 L 104.617188 235.996094 Z M 104.617188 241.875 "/>
<path style=" stroke:none;fill-rule:nonzero;fill:rgb(0%,0%,0%);fill-opacity:1;" d="M 316.316406 241.875 L 310.4375 244.816406 L 304.554688 241.875 L 304.554688 235.996094 L 310.4375 233.054688 L 316.316406 235.996094 Z M 316.316406 241.875 "/>
<path style=" stroke:none;fill-rule:nonzero;fill:rgb(0%,0%,0%);fill-opacity:1;" d="M 210.46875 294.800781 L 204.585938 297.738281 L 198.707031 294.800781 L 198.707031 288.917969 L 204.585938 285.980469 L 210.46875 288.917969 Z M 210.46875 294.800781 "/>
<path style=" stroke:none;fill-rule:nonzero;fill:rgb(0%,0%,0%);fill-opacity:1;" d="M 281.035156 83.101563 L 275.152344 86.042969 L 269.273438 83.101563 L 269.273438 77.222656 L 275.152344 74.28125 L 281.035156 77.222656 Z M 281.035156 83.101563 "/>
<path style=" stroke:none;fill-rule:nonzero;fill:rgb(0%,0%,0%);fill-opacity:1;" d="M 386.882813 136.027344 L 381 138.964844 L 375.121094 136.027344 L 375.121094 130.144531 L 381 127.207031 L 386.882813 130.144531 Z M 386.882813 136.027344 "/>
<path style=" stroke:none;fill-rule:nonzero;fill:rgb(0%,0%,0%);fill-opacity:1;" d="M 175.183594 136.027344 L 169.304688 138.964844 L 163.421875 136.027344 L 163.421875 130.144531 L 169.304688 127.207031 L 175.183594 130.144531 Z M 175.183594 136.027344 "/>
<path style=" stroke:none;fill-rule:nonzero;fill:rgb(0%,0%,0%);fill-opacity:1;" d="M 175.183594 241.875 L 169.304688 244.816406 L 163.421875 241.875 L 163.421875 235.996094 L 169.304688 233.054688 L 175.183594 235.996094 Z M 175.183594 241.875 "/>
<path style=" stroke:none;fill-rule:nonzero;fill:rgb(0%,0%,0%);fill-opacity:1;" d="M 386.882813 241.875 L 381 244.816406 L 375.121094 241.875 L 375.121094 235.996094 L 381 233.054688 L 386.882813 235.996094 Z M 386.882813 241.875 "/>
<path style=" stroke:none;fill-rule:nonzero;fill:rgb(0%,0%,0%);fill-opacity:1;" d="M 281.035156 294.800781 L 275.152344 297.738281 L 269.273438 294.800781 L 269.273438 288.917969 L 275.152344 285.980469 L 281.035156 288.917969 Z M 281.035156 294.800781 "/>
<path style=" stroke:none;fill-rule:nonzero;fill:rgb(0%,0%,0%);fill-opacity:1;" d="M 245.75 100.742188 L 239.871094 103.683594 L 233.988281 100.742188 L 233.988281 94.863281 L 239.871094 91.921875 L 245.75 94.863281 Z M 245.75 100.742188 "/>
<path style=" stroke:none;fill-rule:nonzero;fill:rgb(0%,0%,0%);fill-opacity:1;" d="M 351.597656 153.667969 L 345.71875 156.609375 L 339.839844 153.667969 L 339.839844 147.789063 L 345.71875 144.847656 L 351.597656 147.789063 Z M 351.597656 153.667969 "/>
<path style=" stroke:none;fill-rule:nonzero;fill:rgb(0%,0%,0%);fill-opacity:1;" d="M 139.902344 153.667969 L 134.019531 156.609375 L 128.140625 153.667969 L 128.140625 147.789063 L 134.019531 144.847656 L 139.902344 147.789063 Z M 139.902344 153.667969 "/>
<path style=" stroke:none;fill-rule:nonzero;fill:rgb(0%,0%,0%);fill-opacity:1;" d="M 139.902344 259.515625 L 134.019531 262.457031 L 128.140625 259.515625 L 128.140625 253.636719 L 134.019531 250.695313 L 139.902344 253.636719 Z M 139.902344 259.515625 "/>
<path style=" stroke:none;fill-rule:nonzero;fill:rgb(0%,0%,0%);fill-opacity:1;" d="M 351.597656 259.515625 L 345.71875 262.457031 L 339.839844 259.515625 L 339.839844 253.636719 L 345.71875 250.695313 L 351.597656 253.636719 Z M 351.597656 259.515625 "/>
<path style=" stroke:none;fill-rule:nonzero;fill:rgb(0%,0%,0%);fill-opacity:1;" d="M 245.75 312.441406 L 239.871094 315.382813 L 233.988281 312.441406 L 233.988281 306.5625 L 239.871094 303.621094 L 245.75 306.5625 Z M 245.75 312.441406 "/>
<path style=" stroke:none;fill-rule:nonzero;fill:rgb(0%,0%,0%);fill-opacity:1;" d="M 257.511719 36.058594 L 251.628906 39 L 245.75 36.058594 L 245.75 30.175781 L 251.628906 27.238281 L 257.511719 30.175781 Z M 257.511719 36.058594 "/>
<path style=" stroke:none;fill-rule:nonzero;fill:rgb(0%,0%,0%);fill-opacity:1;" d="M 363.359375 88.984375 L 357.480469 91.921875 L 351.597656 88.984375 L 351.597656 83.101563 L 357.480469 80.160156 L 363.359375 83.101563 Z M 363.359375 88.984375 "/>
<path style=" stroke:none;fill-rule:nonzero;fill:rgb(0%,0%,0%);fill-opacity:1;" d="M 151.664063 88.984375 L 145.78125 91.921875 L 139.902344 88.984375 L 139.902344 83.101563 L 145.78125 80.160156 L 151.664063 83.101563 Z M 151.664063 88.984375 "/>
<path style=" stroke:none;fill-rule:nonzero;fill:rgb(0%,0%,0%);fill-opacity:1;" d="M 151.664063 194.832031 L 145.78125 197.773438 L 139.902344 194.832031 L 139.902344 188.949219 L 145.78125 186.011719 L 151.664063 188.949219 Z M 151.664063 194.832031 "/>
<path style=" stroke:none;fill-rule:nonzero;fill:rgb(0%,0%,0%);fill-opacity:1;" d="M 363.359375 194.832031 L 357.480469 197.773438 L 351.597656 194.832031 L 351.597656 188.949219 L 357.480469 186.011719 L 363.359375 188.949219 Z M 363.359375 194.832031 "/>
<path style=" stroke:none;fill-rule:nonzero;fill:rgb(0%,0%,0%);fill-opacity:1;" d="M 257.511719 247.753906 L 251.628906 250.695313 L 245.75 247.753906 L 245.75 241.875 L 251.628906 238.933594 L 257.511719 241.875 Z M 257.511719 247.753906 "/>
<path style=" stroke:none;fill-rule:nonzero;fill:rgb(0%,0%,0%);fill-opacity:1;" d="M 292.792969 53.699219 L 286.914063 56.640625 L 281.035156 53.699219 L 281.035156 47.820313 L 286.914063 44.878906 L 292.792969 47.820313 Z M 292.792969 53.699219 "/>
<path style=" stroke:none;fill-rule:nonzero;fill:rgb(0%,0%,0%);fill-opacity:1;" d="M 398.644531 106.625 L 392.761719 109.5625 L 386.882813 106.625 L 386.882813 100.742188 L 392.761719 97.804688 L 398.644531 100.742188 Z M 398.644531 106.625 "/>
<path style=" stroke:none;fill-rule:nonzero;fill:rgb(0%,0%,0%);fill-opacity:1;" d="M 186.945313 106.625 L 181.066406 109.5625 L 175.183594 106.625 L 175.183594 100.742188 L 181.066406 97.804688 L 186.945313 100.742188 Z M 186.945313 106.625 "/>
<path style=" stroke:none;fill-rule:nonzero;fill:rgb(0%,0%,0%);fill-opacity:1;" d="M 186.945313 212.472656 L 181.066406 215.414063 L 175.183594 212.472656 L 175.183594 206.59375 L 181.066406 203.652344 L 186.945313 206.59375 Z M 186.945313 212.472656 "/>
<path style=" stroke:none;fill-rule:nonzero;fill:rgb(0%,0%,0%);fill-opacity:1;" d="M 398.644531 212.472656 L 392.761719 215.414063 L 386.882813 212.472656 L 386.882813 206.59375 L 392.761719 203.652344 L 398.644531 206.59375 Z M 398.644531 212.472656 "/>
<path style=" stroke:none;fill-rule:nonzero;fill:rgb(0%,0%,0%);fill-opacity:1;" d="M 292.792969 265.398438 L 286.914063 268.335938 L 281.035156 265.398438 L 281.035156 259.515625 L 286.914063 256.578125 L 292.792969 259.515625 Z M 292.792969 265.398438 "/>
<path style=" stroke:none;fill-rule:nonzero;fill:rgb(0%,0%,0%);fill-opacity:1;" d="M 222.226563 53.699219 L 216.347656 56.640625 L 210.46875 53.699219 L 210.46875 47.820313 L 216.347656 44.878906 L 222.226563 47.820313 Z M 222.226563 53.699219 "/>
<path style=" stroke:none;fill-rule:nonzero;fill:rgb(0%,0%,0%);fill-opacity:1;" d="M 328.078125 106.625 L 322.195313 109.5625 L 316.316406 106.625 L 316.316406 100.742188 L 322.195313 97.804688 L 328.078125 100.742188 Z M 328.078125 106.625 "/>
<path style=" stroke:none;fill-rule:nonzero;fill:rgb(0%,0%,0%);fill-opacity:1;" d="M 116.378906 106.625 L 110.5 109.5625 L 104.617188 106.625 L 104.617188 100.742188 L 110.5 97.804688 L 116.378906 100.742188 Z M 116.378906 106.625 "/>
<path style=" stroke:none;fill-rule:nonzero;fill:rgb(0%,0%,0%);fill-opacity:1;" d="M 116.378906 212.472656 L 110.5 215.414063 L 104.617188 212.472656 L 104.617188 206.59375 L 110.5 203.652344 L 116.378906 206.59375 Z M 116.378906 212.472656 "/>
<path style=" stroke:none;fill-rule:nonzero;fill:rgb(0%,0%,0%);fill-opacity:1;" d="M 328.078125 212.472656 L 322.195313 215.414063 L 316.316406 212.472656 L 316.316406 206.59375 L 322.195313 203.652344 L 328.078125 206.59375 Z M 328.078125 212.472656 "/>
<path style=" stroke:none;fill-rule:nonzero;fill:rgb(0%,0%,0%);fill-opacity:1;" d="M 222.226563 265.398438 L 216.347656 268.335938 L 210.46875 265.398438 L 210.46875 259.515625 L 216.347656 256.578125 L 222.226563 259.515625 Z M 222.226563 265.398438 "/>
<path style=" stroke:none;fill-rule:nonzero;fill:rgb(0%,0%,0%);fill-opacity:1;" d="M 222.226563 88.984375 L 216.347656 91.921875 L 210.46875 88.984375 L 210.46875 83.101563 L 216.347656 80.160156 L 222.226563 83.101563 Z M 222.226563 88.984375 "/>
<path style=" stroke:none;fill-rule:nonzero;fill:rgb(0%,0%,0%);fill-opacity:1;" d="M 328.078125 141.90625 L 322.195313 144.847656 L 316.316406 141.90625 L 316.316406 136.027344 L 322.195313 133.085938 L 328.078125 136.027344 Z M 328.078125 141.90625 "/>
<path style=" stroke:none;fill-rule:nonzero;fill:rgb(0%,0%,0%);fill-opacity:1;" d="M 116.378906 141.90625 L 110.5 144.847656 L 104.617188 141.90625 L 104.617188 136.027344 L 110.5 133.085938 L 116.378906 136.027344 Z M 116.378906 141.90625 "/>
<path style=" stroke:none;fill-rule:nonzero;fill:rgb(0%,0%,0%);fill-opacity:1;" d="M 116.378906 247.753906 L 110.5 250.695313 L 104.617188 247.753906 L 104.617188 241.875 L 110.5 238.933594 L 116.378906 241.875 Z M 116.378906 247.753906 "/>
<path style=" stroke:none;fill-rule:nonzero;fill:rgb(0%,0%,0%);fill-opacity:1;" d="M 328.078125 247.753906 L 322.195313 250.695313 L 316.316406 247.753906 L 316.316406 241.875 L 322.195313 238.933594 L 328.078125 241.875 Z M 328.078125 247.753906 "/>
<path style=" stroke:none;fill-rule:nonzero;fill:rgb(0%,0%,0%);fill-opacity:1;" d="M 222.226563 300.679688 L 216.347656 303.621094 L 210.46875 300.679688 L 210.46875 294.800781 L 216.347656 291.859375 L 222.226563 294.800781 Z M 222.226563 300.679688 "/>
<path style=" stroke:none;fill-rule:nonzero;fill:rgb(0%,0%,0%);fill-opacity:1;" d="M 292.792969 88.984375 L 286.914063 91.921875 L 281.035156 88.984375 L 281.035156 83.101563 L 286.914063 80.160156 L 292.792969 83.101563 Z M 292.792969 88.984375 "/>
<path style=" stroke:none;fill-rule:nonzero;fill:rgb(0%,0%,0%);fill-opacity:1;" d="M 398.644531 141.90625 L 392.761719 144.847656 L 386.882813 141.90625 L 386.882813 136.027344 L 392.761719 133.085938 L 398.644531 136.027344 Z M 398.644531 141.90625 "/>
<path style=" stroke:none;fill-rule:nonzero;fill:rgb(0%,0%,0%);fill-opacity:1;" d="M 186.945313 141.90625 L 181.066406 144.847656 L 175.183594 141.90625 L 175.183594 136.027344 L 181.066406 133.085938 L 186.945313 136.027344 Z M 186.945313 141.90625 "/>
<path style=" stroke:none;fill-rule:nonzero;fill:rgb(0%,0%,0%);fill-opacity:1;" d="M 186.945313 247.753906 L 181.066406 250.695313 L 175.183594 247.753906 L 175.183594 241.875 L 181.066406 238.933594 L 186.945313 241.875 Z M 186.945313 247.753906 "/>
<path style=" stroke:none;fill-rule:nonzero;fill:rgb(0%,0%,0%);fill-opacity:1;" d="M 398.644531 247.753906 L 392.761719 250.695313 L 386.882813 247.753906 L 386.882813 241.875 L 392.761719 238.933594 L 398.644531 241.875 Z M 398.644531 247.753906 "/>
<path style=" stroke:none;fill-rule:nonzero;fill:rgb(0%,0%,0%);fill-opacity:1;" d="M 292.792969 300.679688 L 286.914063 303.621094 L 281.035156 300.679688 L 281.035156 294.800781 L 286.914063 291.859375 L 292.792969 294.800781 Z M 292.792969 300.679688 "/>
<path style=" stroke:none;fill-rule:nonzero;fill:rgb(0%,0%,0%);fill-opacity:1;" d="M 257.511719 106.625 L 251.628906 109.5625 L 245.75 106.625 L 245.75 100.742188 L 251.628906 97.804688 L 257.511719 100.742188 Z M 257.511719 106.625 "/>
<path style=" stroke:none;fill-rule:nonzero;fill:rgb(0%,0%,0%);fill-opacity:1;" d="M 363.359375 159.546875 L 357.480469 162.488281 L 351.597656 159.546875 L 351.597656 153.667969 L 357.480469 150.726563 L 363.359375 153.667969 Z M 363.359375 159.546875 "/>
<path style=" stroke:none;fill-rule:nonzero;fill:rgb(0%,0%,0%);fill-opacity:1;" d="M 151.664063 159.546875 L 145.78125 162.488281 L 139.902344 159.546875 L 139.902344 153.667969 L 145.78125 150.726563 L 151.664063 153.667969 Z M 151.664063 159.546875 "/>
<path style=" stroke:none;fill-rule:nonzero;fill:rgb(0%,0%,0%);fill-opacity:1;" d="M 151.664063 265.398438 L 145.78125 268.335938 L 139.902344 265.398438 L 139.902344 259.515625 L 145.78125 256.578125 L 151.664063 259.515625 Z M 151.664063 265.398438 "/>
<path style=" stroke:none;fill-rule:nonzero;fill:rgb(0%,0%,0%);fill-opacity:1;" d="M 363.359375 265.398438 L 357.480469 268.335938 L 351.597656 265.398438 L 351.597656 259.515625 L 357.480469 256.578125 L 363.359375 259.515625 Z M 363.359375 265.398438 "/>
<path style=" stroke:none;fill-rule:nonzero;fill:rgb(0%,0%,0%);fill-opacity:1;" d="M 257.511719 318.320313 L 251.628906 321.261719 L 245.75 318.320313 L 245.75 312.441406 L 251.628906 309.5 L 257.511719 312.441406 Z M 257.511719 318.320313 "/>
<path style=" stroke:none;fill-rule:nonzero;fill:rgb(0%,0%,0%);fill-opacity:1;" d="M 233.988281 36.058594 L 228.109375 39 L 222.226563 36.058594 L 222.226563 30.175781 L 228.109375 27.238281 L 233.988281 30.175781 Z M 233.988281 36.058594 "/>
<path style=" stroke:none;fill-rule:nonzero;fill:rgb(0%,0%,0%);fill-opacity:1;" d="M 339.839844 88.984375 L 333.957031 91.921875 L 328.078125 88.984375 L 328.078125 83.101563 L 333.957031 80.160156 L 339.839844 83.101563 Z M 339.839844 88.984375 "/>
<path style=" stroke:none;fill-rule:nonzero;fill:rgb(0%,0%,0%);fill-opacity:1;" d="M 128.140625 88.984375 L 122.261719 91.921875 L 116.378906 88.984375 L 116.378906 83.101563 L 122.261719 80.160156 L 128.140625 83.101563 Z M 128.140625 88.984375 "/>
<path style=" stroke:none;fill-rule:nonzero;fill:rgb(0%,0%,0%);fill-opacity:1;" d="M 128.140625 194.832031 L 122.261719 197.773438 L 116.378906 194.832031 L 116.378906 188.949219 L 122.261719 186.011719 L 128.140625 188.949219 Z M 128.140625 194.832031 "/>
<path style=" stroke:none;fill-rule:nonzero;fill:rgb(0%,0%,0%);fill-opacity:1;" d="M 339.839844 194.832031 L 333.957031 197.773438 L 328.078125 194.832031 L 328.078125 188.949219 L 333.957031 186.011719 L 339.839844 188.949219 Z M 339.839844 194.832031 "/>
<path style=" stroke:none;fill-rule:nonzero;fill:rgb(0%,0%,0%);fill-opacity:1;" d="M 233.988281 247.753906 L 228.109375 250.695313 L 222.226563 247.753906 L 222.226563 241.875 L 228.109375 238.933594 L 233.988281 241.875 Z M 233.988281 247.753906 "/>
<path style=" stroke:none;fill-rule:nonzero;fill:rgb(0%,0%,0%);fill-opacity:1;" d="M 269.273438 53.699219 L 263.390625 56.640625 L 257.511719 53.699219 L 257.511719 47.820313 L 263.390625 44.878906 L 269.273438 47.820313 Z M 269.273438 53.699219 "/>
<path style=" stroke:none;fill-rule:nonzero;fill:rgb(0%,0%,0%);fill-opacity:1;" d="M 375.121094 106.625 L 369.242188 109.5625 L 363.359375 106.625 L 363.359375 100.742188 L 369.242188 97.804688 L 375.121094 100.742188 Z M 375.121094 106.625 "/>
<path style=" stroke:none;fill-rule:nonzero;fill:rgb(0%,0%,0%);fill-opacity:1;" d="M 163.421875 106.625 L 157.542969 109.5625 L 151.664063 106.625 L 151.664063 100.742188 L 157.542969 97.804688 L 163.421875 100.742188 Z M 163.421875 106.625 "/>
<path style=" stroke:none;fill-rule:nonzero;fill:rgb(0%,0%,0%);fill-opacity:1;" d="M 163.421875 212.472656 L 157.542969 215.414063 L 151.664063 212.472656 L 151.664063 206.59375 L 157.542969 203.652344 L 163.421875 206.59375 Z M 163.421875 212.472656 "/>
<path style=" stroke:none;fill-rule:nonzero;fill:rgb(0%,0%,0%);fill-opacity:1;" d="M 375.121094 212.472656 L 369.242188 215.414063 L 363.359375 212.472656 L 363.359375 206.59375 L 369.242188 203.652344 L 375.121094 206.59375 Z M 375.121094 212.472656 "/>
<path style=" stroke:none;fill-rule:nonzero;fill:rgb(0%,0%,0%);fill-opacity:1;" d="M 269.273438 265.398438 L 263.390625 268.335938 L 257.511719 265.398438 L 257.511719 259.515625 L 263.390625 256.578125 L 269.273438 259.515625 Z M 269.273438 265.398438 "/>
<path style=" stroke:none;fill-rule:nonzero;fill:rgb(0%,0%,0%);fill-opacity:1;" d="M 198.707031 53.699219 L 192.824219 56.640625 L 186.945313 53.699219 L 186.945313 47.820313 L 192.824219 44.878906 L 198.707031 47.820313 Z M 198.707031 53.699219 "/>
<path style=" stroke:none;fill-rule:nonzero;fill:rgb(0%,0%,0%);fill-opacity:1;" d="M 304.554688 106.625 L 298.675781 109.5625 L 292.792969 106.625 L 292.792969 100.742188 L 298.675781 97.804688 L 304.554688 100.742188 Z M 304.554688 106.625 "/>
<path style=" stroke:none;fill-rule:nonzero;fill:rgb(0%,0%,0%);fill-opacity:1;" d="M 92.859375 106.625 L 86.976563 109.5625 L 81.097656 106.625 L 81.097656 100.742188 L 86.976563 97.804688 L 92.859375 100.742188 Z M 92.859375 106.625 "/>
<path style=" stroke:none;fill-rule:nonzero;fill:rgb(0%,0%,0%);fill-opacity:1;" d="M 92.859375 212.472656 L 86.976563 215.414063 L 81.097656 212.472656 L 81.097656 206.59375 L 86.976563 203.652344 L 92.859375 206.59375 Z M 92.859375 212.472656 "/>
<path style=" stroke:none;fill-rule:nonzero;fill:rgb(0%,0%,0%);fill-opacity:1;" d="M 304.554688 212.472656 L 298.675781 215.414063 L 292.792969 212.472656 L 292.792969 206.59375 L 298.675781 203.652344 L 304.554688 206.59375 Z M 304.554688 212.472656 "/>
<path style=" stroke:none;fill-rule:nonzero;fill:rgb(0%,0%,0%);fill-opacity:1;" d="M 198.707031 265.398438 L 192.824219 268.335938 L 186.945313 265.398438 L 186.945313 259.515625 L 192.824219 256.578125 L 198.707031 259.515625 Z M 198.707031 265.398438 "/>
<path style=" stroke:none;fill-rule:nonzero;fill:rgb(0%,0%,0%);fill-opacity:1;" d="M 198.707031 88.984375 L 192.824219 91.921875 L 186.945313 88.984375 L 186.945313 83.101563 L 192.824219 80.160156 L 198.707031 83.101563 Z M 198.707031 88.984375 "/>
<path style=" stroke:none;fill-rule:nonzero;fill:rgb(0%,0%,0%);fill-opacity:1;" d="M 304.554688 141.90625 L 298.675781 144.847656 L 292.792969 141.90625 L 292.792969 136.027344 L 298.675781 133.085938 L 304.554688 136.027344 Z M 304.554688 141.90625 "/>
<path style=" stroke:none;fill-rule:nonzero;fill:rgb(0%,0%,0%);fill-opacity:1;" d="M 92.859375 141.90625 L 86.976563 144.847656 L 81.097656 141.90625 L 81.097656 136.027344 L 86.976563 133.085938 L 92.859375 136.027344 Z M 92.859375 141.90625 "/>
<path style=" stroke:none;fill-rule:nonzero;fill:rgb(0%,0%,0%);fill-opacity:1;" d="M 92.859375 247.753906 L 86.976563 250.695313 L 81.097656 247.753906 L 81.097656 241.875 L 86.976563 238.933594 L 92.859375 241.875 Z M 92.859375 247.753906 "/>
<path style=" stroke:none;fill-rule:nonzero;fill:rgb(0%,0%,0%);fill-opacity:1;" d="M 304.554688 247.753906 L 298.675781 250.695313 L 292.792969 247.753906 L 292.792969 241.875 L 298.675781 238.933594 L 304.554688 241.875 Z M 304.554688 247.753906 "/>
<path style=" stroke:none;fill-rule:nonzero;fill:rgb(0%,0%,0%);fill-opacity:1;" d="M 198.707031 300.679688 L 192.824219 303.621094 L 186.945313 300.679688 L 186.945313 294.800781 L 192.824219 291.859375 L 198.707031 294.800781 Z M 198.707031 300.679688 "/>
<path style=" stroke:none;fill-rule:nonzero;fill:rgb(0%,0%,0%);fill-opacity:1;" d="M 269.273438 88.984375 L 263.390625 91.921875 L 257.511719 88.984375 L 257.511719 83.101563 L 263.390625 80.160156 L 269.273438 83.101563 Z M 269.273438 88.984375 "/>
<path style=" stroke:none;fill-rule:nonzero;fill:rgb(0%,0%,0%);fill-opacity:1;" d="M 375.121094 141.90625 L 369.242188 144.847656 L 363.359375 141.90625 L 363.359375 136.027344 L 369.242188 133.085938 L 375.121094 136.027344 Z M 375.121094 141.90625 "/>
<path style=" stroke:none;fill-rule:nonzero;fill:rgb(0%,0%,0%);fill-opacity:1;" d="M 163.421875 141.90625 L 157.542969 144.847656 L 151.664063 141.90625 L 151.664063 136.027344 L 157.542969 133.085938 L 163.421875 136.027344 Z M 163.421875 141.90625 "/>
<path style=" stroke:none;fill-rule:nonzero;fill:rgb(0%,0%,0%);fill-opacity:1;" d="M 163.421875 247.753906 L 157.542969 250.695313 L 151.664063 247.753906 L 151.664063 241.875 L 157.542969 238.933594 L 163.421875 241.875 Z M 163.421875 247.753906 "/>
<path style=" stroke:none;fill-rule:nonzero;fill:rgb(0%,0%,0%);fill-opacity:1;" d="M 375.121094 247.753906 L 369.242188 250.695313 L 363.359375 247.753906 L 363.359375 241.875 L 369.242188 238.933594 L 375.121094 241.875 Z M 375.121094 247.753906 "/>
<path style=" stroke:none;fill-rule:nonzero;fill:rgb(0%,0%,0%);fill-opacity:1;" d="M 269.273438 300.679688 L 263.390625 303.621094 L 257.511719 300.679688 L 257.511719 294.800781 L 263.390625 291.859375 L 269.273438 294.800781 Z M 269.273438 300.679688 "/>
<path style=" stroke:none;fill-rule:nonzero;fill:rgb(0%,0%,0%);fill-opacity:1;" d="M 233.988281 106.625 L 228.109375 109.5625 L 222.226563 106.625 L 222.226563 100.742188 L 228.109375 97.804688 L 233.988281 100.742188 Z M 233.988281 106.625 "/>
<path style=" stroke:none;fill-rule:nonzero;fill:rgb(0%,0%,0%);fill-opacity:1;" d="M 339.839844 159.546875 L 333.957031 162.488281 L 328.078125 159.546875 L 328.078125 153.667969 L 333.957031 150.726563 L 339.839844 153.667969 Z M 339.839844 159.546875 "/>
<path style=" stroke:none;fill-rule:nonzero;fill:rgb(0%,0%,0%);fill-opacity:1;" d="M 128.140625 159.546875 L 122.261719 162.488281 L 116.378906 159.546875 L 116.378906 153.667969 L 122.261719 150.726563 L 128.140625 153.667969 Z M 128.140625 159.546875 "/>
<path style=" stroke:none;fill-rule:nonzero;fill:rgb(0%,0%,0%);fill-opacity:1;" d="M 128.140625 265.398438 L 122.261719 268.335938 L 116.378906 265.398438 L 116.378906 259.515625 L 122.261719 256.578125 L 128.140625 259.515625 Z M 128.140625 265.398438 "/>
<path style=" stroke:none;fill-rule:nonzero;fill:rgb(0%,0%,0%);fill-opacity:1;" d="M 339.839844 265.398438 L 333.957031 268.335938 L 328.078125 265.398438 L 328.078125 259.515625 L 333.957031 256.578125 L 339.839844 259.515625 Z M 339.839844 265.398438 "/>
<path style=" stroke:none;fill-rule:nonzero;fill:rgb(0%,0%,0%);fill-opacity:1;" d="M 233.988281 318.320313 L 228.109375 321.261719 L 222.226563 318.320313 L 222.226563 312.441406 L 228.109375 309.5 L 233.988281 312.441406 Z M 233.988281 318.320313 "/>
<path style=" stroke:none;fill-rule:nonzero;fill:rgb(0%,0%,0%);fill-opacity:1;" d="M 233.988281 47.820313 L 228.109375 50.757813 L 222.226563 47.820313 L 222.226563 41.9375 L 228.109375 39 L 233.988281 41.9375 Z M 233.988281 47.820313 "/>
<path style=" stroke:none;fill-rule:nonzero;fill:rgb(0%,0%,0%);fill-opacity:1;" d="M 339.839844 100.742188 L 333.957031 103.683594 L 328.078125 100.742188 L 328.078125 94.863281 L 333.957031 91.921875 L 339.839844 94.863281 Z M 339.839844 100.742188 "/>
<path style=" stroke:none;fill-rule:nonzero;fill:rgb(0%,0%,0%);fill-opacity:1;" d="M 128.140625 100.742188 L 122.261719 103.683594 L 116.378906 100.742188 L 116.378906 94.863281 L 122.261719 91.921875 L 128.140625 94.863281 Z M 128.140625 100.742188 "/>
<path style=" stroke:none;fill-rule:nonzero;fill:rgb(0%,0%,0%);fill-opacity:1;" d="M 128.140625 206.59375 L 122.261719 209.53125 L 116.378906 206.59375 L 116.378906 200.710938 L 122.261719 197.773438 L 128.140625 200.710938 Z M 128.140625 206.59375 "/>
<path style=" stroke:none;fill-rule:nonzero;fill:rgb(0%,0%,0%);fill-opacity:1;" d="M 339.839844 206.59375 L 333.957031 209.53125 L 328.078125 206.59375 L 328.078125 200.710938 L 333.957031 197.773438 L 339.839844 200.710938 Z M 339.839844 206.59375 "/>
<path style=" stroke:none;fill-rule:nonzero;fill:rgb(0%,0%,0%);fill-opacity:1;" d="M 233.988281 259.515625 L 228.109375 262.457031 L 222.226563 259.515625 L 222.226563 253.636719 L 228.109375 250.695313 L 233.988281 253.636719 Z M 233.988281 259.515625 "/>
<path style=" stroke:none;fill-rule:nonzero;fill:rgb(0%,0%,0%);fill-opacity:1;" d="M 269.273438 65.460938 L 263.390625 68.402344 L 257.511719 65.460938 L 257.511719 59.578125 L 263.390625 56.640625 L 269.273438 59.578125 Z M 269.273438 65.460938 "/>
<path style=" stroke:none;fill-rule:nonzero;fill:rgb(0%,0%,0%);fill-opacity:1;" d="M 375.121094 118.386719 L 369.242188 121.324219 L 363.359375 118.386719 L 363.359375 112.503906 L 369.242188 109.5625 L 375.121094 112.503906 Z M 375.121094 118.386719 "/>
<path style=" stroke:none;fill-rule:nonzero;fill:rgb(0%,0%,0%);fill-opacity:1;" d="M 163.421875 118.386719 L 157.542969 121.324219 L 151.664063 118.386719 L 151.664063 112.503906 L 157.542969 109.5625 L 163.421875 112.503906 Z M 163.421875 118.386719 "/>
<path style=" stroke:none;fill-rule:nonzero;fill:rgb(0%,0%,0%);fill-opacity:1;" d="M 163.421875 224.234375 L 157.542969 227.175781 L 151.664063 224.234375 L 151.664063 218.351563 L 157.542969 215.414063 L 163.421875 218.351563 Z M 163.421875 224.234375 "/>
<path style=" stroke:none;fill-rule:nonzero;fill:rgb(0%,0%,0%);fill-opacity:1;" d="M 375.121094 224.234375 L 369.242188 227.175781 L 363.359375 224.234375 L 363.359375 218.351563 L 369.242188 215.414063 L 375.121094 218.351563 Z M 375.121094 224.234375 "/>
<path style=" stroke:none;fill-rule:nonzero;fill:rgb(0%,0%,0%);fill-opacity:1;" d="M 269.273438 277.160156 L 263.390625 280.097656 L 257.511719 277.160156 L 257.511719 271.277344 L 263.390625 268.335938 L 269.273438 271.277344 Z M 269.273438 277.160156 "/>
<path style=" stroke:none;fill-rule:nonzero;fill:rgb(0%,0%,0%);fill-opacity:1;" d="M 198.707031 65.460938 L 192.824219 68.402344 L 186.945313 65.460938 L 186.945313 59.578125 L 192.824219 56.640625 L 198.707031 59.578125 Z M 198.707031 65.460938 "/>
<path style=" stroke:none;fill-rule:nonzero;fill:rgb(0%,0%,0%);fill-opacity:1;" d="M 304.554688 118.386719 L 298.675781 121.324219 L 292.792969 118.386719 L 292.792969 112.503906 L 298.675781 109.5625 L 304.554688 112.503906 Z M 304.554688 118.386719 "/>
<path style=" stroke:none;fill-rule:nonzero;fill:rgb(0%,0%,0%);fill-opacity:1;" d="M 92.859375 118.386719 L 86.976563 121.324219 L 81.097656 118.386719 L 81.097656 112.503906 L 86.976563 109.5625 L 92.859375 112.503906 Z M 92.859375 118.386719 "/>
<path style=" stroke:none;fill-rule:nonzero;fill:rgb(0%,0%,0%);fill-opacity:1;" d="M 92.859375 224.234375 L 86.976563 227.175781 L 81.097656 224.234375 L 81.097656 218.351563 L 86.976563 215.414063 L 92.859375 218.351563 Z M 92.859375 224.234375 "/>
<path style=" stroke:none;fill-rule:nonzero;fill:rgb(0%,0%,0%);fill-opacity:1;" d="M 304.554688 224.234375 L 298.675781 227.175781 L 292.792969 224.234375 L 292.792969 218.351563 L 298.675781 215.414063 L 304.554688 218.351563 Z M 304.554688 224.234375 "/>
<path style=" stroke:none;fill-rule:nonzero;fill:rgb(0%,0%,0%);fill-opacity:1;" d="M 198.707031 277.160156 L 192.824219 280.097656 L 186.945313 277.160156 L 186.945313 271.277344 L 192.824219 268.335938 L 198.707031 271.277344 Z M 198.707031 277.160156 "/>
<path style=" stroke:none;fill-rule:nonzero;fill:rgb(0%,0%,0%);fill-opacity:1;" d="M 198.707031 100.742188 L 192.824219 103.683594 L 186.945313 100.742188 L 186.945313 94.863281 L 192.824219 91.921875 L 198.707031 94.863281 Z M 198.707031 100.742188 "/>
<path style=" stroke:none;fill-rule:nonzero;fill:rgb(0%,0%,0%);fill-opacity:1;" d="M 304.554688 153.667969 L 298.675781 156.609375 L 292.792969 153.667969 L 292.792969 147.789063 L 298.675781 144.847656 L 304.554688 147.789063 Z M 304.554688 153.667969 "/>
<path style=" stroke:none;fill-rule:nonzero;fill:rgb(0%,0%,0%);fill-opacity:1;" d="M 92.859375 153.667969 L 86.976563 156.609375 L 81.097656 153.667969 L 81.097656 147.789063 L 86.976563 144.847656 L 92.859375 147.789063 Z M 92.859375 153.667969 "/>
<path style=" stroke:none;fill-rule:nonzero;fill:rgb(0%,0%,0%);fill-opacity:1;" d="M 92.859375 259.515625 L 86.976563 262.457031 L 81.097656 259.515625 L 81.097656 253.636719 L 86.976563 250.695313 L 92.859375 253.636719 Z M 92.859375 259.515625 "/>
<path style=" stroke:none;fill-rule:nonzero;fill:rgb(0%,0%,0%);fill-opacity:1;" d="M 304.554688 259.515625 L 298.675781 262.457031 L 292.792969 259.515625 L 292.792969 253.636719 L 298.675781 250.695313 L 304.554688 253.636719 Z M 304.554688 259.515625 "/>
<path style=" stroke:none;fill-rule:nonzero;fill:rgb(0%,0%,0%);fill-opacity:1;" d="M 198.707031 312.441406 L 192.824219 315.382813 L 186.945313 312.441406 L 186.945313 306.5625 L 192.824219 303.621094 L 198.707031 306.5625 Z M 198.707031 312.441406 "/>
<path style=" stroke:none;fill-rule:nonzero;fill:rgb(0%,0%,0%);fill-opacity:1;" d="M 269.273438 100.742188 L 263.390625 103.683594 L 257.511719 100.742188 L 257.511719 94.863281 L 263.390625 91.921875 L 269.273438 94.863281 Z M 269.273438 100.742188 "/>
<path style=" stroke:none;fill-rule:nonzero;fill:rgb(0%,0%,0%);fill-opacity:1;" d="M 375.121094 153.667969 L 369.242188 156.609375 L 363.359375 153.667969 L 363.359375 147.789063 L 369.242188 144.847656 L 375.121094 147.789063 Z M 375.121094 153.667969 "/>
<path style=" stroke:none;fill-rule:nonzero;fill:rgb(0%,0%,0%);fill-opacity:1;" d="M 163.421875 153.667969 L 157.542969 156.609375 L 151.664063 153.667969 L 151.664063 147.789063 L 157.542969 144.847656 L 163.421875 147.789063 Z M 163.421875 153.667969 "/>
<path style=" stroke:none;fill-rule:nonzero;fill:rgb(0%,0%,0%);fill-opacity:1;" d="M 163.421875 259.515625 L 157.542969 262.457031 L 151.664063 259.515625 L 151.664063 253.636719 L 157.542969 250.695313 L 163.421875 253.636719 Z M 163.421875 259.515625 "/>
<path style=" stroke:none;fill-rule:nonzero;fill:rgb(0%,0%,0%);fill-opacity:1;" d="M 375.121094 259.515625 L 369.242188 262.457031 L 363.359375 259.515625 L 363.359375 253.636719 L 369.242188 250.695313 L 375.121094 253.636719 Z M 375.121094 259.515625 "/>
<path style=" stroke:none;fill-rule:nonzero;fill:rgb(0%,0%,0%);fill-opacity:1;" d="M 269.273438 312.441406 L 263.390625 315.382813 L 257.511719 312.441406 L 257.511719 306.5625 L 263.390625 303.621094 L 269.273438 306.5625 Z M 269.273438 312.441406 "/>
<path style=" stroke:none;fill-rule:nonzero;fill:rgb(0%,0%,0%);fill-opacity:1;" d="M 233.988281 118.386719 L 228.109375 121.324219 L 222.226563 118.386719 L 222.226563 112.503906 L 228.109375 109.5625 L 233.988281 112.503906 Z M 233.988281 118.386719 "/>
<path style=" stroke:none;fill-rule:nonzero;fill:rgb(0%,0%,0%);fill-opacity:1;" d="M 339.839844 171.308594 L 333.957031 174.25 L 328.078125 171.308594 L 328.078125 165.429688 L 333.957031 162.488281 L 339.839844 165.429688 Z M 339.839844 171.308594 "/>
<path style=" stroke:none;fill-rule:nonzero;fill:rgb(0%,0%,0%);fill-opacity:1;" d="M 128.140625 171.308594 L 122.261719 174.25 L 116.378906 171.308594 L 116.378906 165.429688 L 122.261719 162.488281 L 128.140625 165.429688 Z M 128.140625 171.308594 "/>
<path style=" stroke:none;fill-rule:nonzero;fill:rgb(0%,0%,0%);fill-opacity:1;" d="M 128.140625 277.160156 L 122.261719 280.097656 L 116.378906 277.160156 L 116.378906 271.277344 L 122.261719 268.335938 L 128.140625 271.277344 Z M 128.140625 277.160156 "/>
<path style=" stroke:none;fill-rule:nonzero;fill:rgb(0%,0%,0%);fill-opacity:1;" d="M 339.839844 277.160156 L 333.957031 280.097656 L 328.078125 277.160156 L 328.078125 271.277344 L 333.957031 268.335938 L 339.839844 271.277344 Z M 339.839844 277.160156 "/>
<path style=" stroke:none;fill-rule:nonzero;fill:rgb(0%,0%,0%);fill-opacity:1;" d="M 233.988281 330.082031 L 228.109375 333.023438 L 222.226563 330.082031 L 222.226563 324.203125 L 228.109375 321.261719 L 233.988281 324.203125 Z M 233.988281 330.082031 "/>
<path style=" stroke:none;fill-rule:nonzero;fill:rgb(0%,0%,0%);fill-opacity:1;" d="M 257.511719 47.820313 L 251.628906 50.757813 L 245.75 47.820313 L 245.75 41.9375 L 251.628906 39 L 257.511719 41.9375 Z M 257.511719 47.820313 "/>
<path style=" stroke:none;fill-rule:nonzero;fill:rgb(0%,0%,0%);fill-opacity:1;" d="M 363.359375 100.742188 L 357.480469 103.683594 L 351.597656 100.742188 L 351.597656 94.863281 L 357.480469 91.921875 L 363.359375 94.863281 Z M 363.359375 100.742188 "/>
<path style=" stroke:none;fill-rule:nonzero;fill:rgb(0%,0%,0%);fill-opacity:1;" d="M 151.664063 100.742188 L 145.78125 103.683594 L 139.902344 100.742188 L 139.902344 94.863281 L 145.78125 91.921875 L 151.664063 94.863281 Z M 151.664063 100.742188 "/>
<path style=" stroke:none;fill-rule:nonzero;fill:rgb(0%,0%,0%);fill-opacity:1;" d="M 151.664063 206.59375 L 145.78125 209.53125 L 139.902344 206.59375 L 139.902344 200.710938 L 145.78125 197.773438 L 151.664063 200.710938 Z M 151.664063 206.59375 "/>
<path style=" stroke:none;fill-rule:nonzero;fill:rgb(0%,0%,0%);fill-opacity:1;" d="M 363.359375 206.59375 L 357.480469 209.53125 L 351.597656 206.59375 L 351.597656 200.710938 L 357.480469 197.773438 L 363.359375 200.710938 Z M 363.359375 206.59375 "/>
<path style=" stroke:none;fill-rule:nonzero;fill:rgb(0%,0%,0%);fill-opacity:1;" d="M 257.511719 259.515625 L 251.628906 262.457031 L 245.75 259.515625 L 245.75 253.636719 L 251.628906 250.695313 L 257.511719 253.636719 Z M 257.511719 259.515625 "/>
<path style=" stroke:none;fill-rule:nonzero;fill:rgb(0%,0%,0%);fill-opacity:1;" d="M 292.792969 65.460938 L 286.914063 68.402344 L 281.035156 65.460938 L 281.035156 59.578125 L 286.914063 56.640625 L 292.792969 59.578125 Z M 292.792969 65.460938 "/>
<path style=" stroke:none;fill-rule:nonzero;fill:rgb(0%,0%,0%);fill-opacity:1;" d="M 398.644531 118.386719 L 392.761719 121.324219 L 386.882813 118.386719 L 386.882813 112.503906 L 392.761719 109.5625 L 398.644531 112.503906 Z M 398.644531 118.386719 "/>
<path style=" stroke:none;fill-rule:nonzero;fill:rgb(0%,0%,0%);fill-opacity:1;" d="M 186.945313 118.386719 L 181.066406 121.324219 L 175.183594 118.386719 L 175.183594 112.503906 L 181.066406 109.5625 L 186.945313 112.503906 Z M 186.945313 118.386719 "/>
<path style=" stroke:none;fill-rule:nonzero;fill:rgb(0%,0%,0%);fill-opacity:1;" d="M 186.945313 224.234375 L 181.066406 227.175781 L 175.183594 224.234375 L 175.183594 218.351563 L 181.066406 215.414063 L 186.945313 218.351563 Z M 186.945313 224.234375 "/>
<path style=" stroke:none;fill-rule:nonzero;fill:rgb(0%,0%,0%);fill-opacity:1;" d="M 398.644531 224.234375 L 392.761719 227.175781 L 386.882813 224.234375 L 386.882813 218.351563 L 392.761719 215.414063 L 398.644531 218.351563 Z M 398.644531 224.234375 "/>
<path style=" stroke:none;fill-rule:nonzero;fill:rgb(0%,0%,0%);fill-opacity:1;" d="M 292.792969 277.160156 L 286.914063 280.097656 L 281.035156 277.160156 L 281.035156 271.277344 L 286.914063 268.335938 L 292.792969 271.277344 Z M 292.792969 277.160156 "/>
<path style=" stroke:none;fill-rule:nonzero;fill:rgb(0%,0%,0%);fill-opacity:1;" d="M 222.226563 65.460938 L 216.347656 68.402344 L 210.46875 65.460938 L 210.46875 59.578125 L 216.347656 56.640625 L 222.226563 59.578125 Z M 222.226563 65.460938 "/>
<path style=" stroke:none;fill-rule:nonzero;fill:rgb(0%,0%,0%);fill-opacity:1;" d="M 328.078125 118.386719 L 322.195313 121.324219 L 316.316406 118.386719 L 316.316406 112.503906 L 322.195313 109.5625 L 328.078125 112.503906 Z M 328.078125 118.386719 "/>
<path style=" stroke:none;fill-rule:nonzero;fill:rgb(0%,0%,0%);fill-opacity:1;" d="M 116.378906 118.386719 L 110.5 121.324219 L 104.617188 118.386719 L 104.617188 112.503906 L 110.5 109.5625 L 116.378906 112.503906 Z M 116.378906 118.386719 "/>
<path style=" stroke:none;fill-rule:nonzero;fill:rgb(0%,0%,0%);fill-opacity:1;" d="M 116.378906 224.234375 L 110.5 227.175781 L 104.617188 224.234375 L 104.617188 218.351563 L 110.5 215.414063 L 116.378906 218.351563 Z M 116.378906 224.234375 "/>
<path style=" stroke:none;fill-rule:nonzero;fill:rgb(0%,0%,0%);fill-opacity:1;" d="M 328.078125 224.234375 L 322.195313 227.175781 L 316.316406 224.234375 L 316.316406 218.351563 L 322.195313 215.414063 L 328.078125 218.351563 Z M 328.078125 224.234375 "/>
<path style=" stroke:none;fill-rule:nonzero;fill:rgb(0%,0%,0%);fill-opacity:1;" d="M 222.226563 277.160156 L 216.347656 280.097656 L 210.46875 277.160156 L 210.46875 271.277344 L 216.347656 268.335938 L 222.226563 271.277344 Z M 222.226563 277.160156 "/>
<path style=" stroke:none;fill-rule:nonzero;fill:rgb(0%,0%,0%);fill-opacity:1;" d="M 222.226563 100.742188 L 216.347656 103.683594 L 210.46875 100.742188 L 210.46875 94.863281 L 216.347656 91.921875 L 222.226563 94.863281 Z M 222.226563 100.742188 "/>
<path style=" stroke:none;fill-rule:nonzero;fill:rgb(0%,0%,0%);fill-opacity:1;" d="M 328.078125 153.667969 L 322.195313 156.609375 L 316.316406 153.667969 L 316.316406 147.789063 L 322.195313 144.847656 L 328.078125 147.789063 Z M 328.078125 153.667969 "/>
<path style=" stroke:none;fill-rule:nonzero;fill:rgb(0%,0%,0%);fill-opacity:1;" d="M 116.378906 153.667969 L 110.5 156.609375 L 104.617188 153.667969 L 104.617188 147.789063 L 110.5 144.847656 L 116.378906 147.789063 Z M 116.378906 153.667969 "/>
<path style=" stroke:none;fill-rule:nonzero;fill:rgb(0%,0%,0%);fill-opacity:1;" d="M 116.378906 259.515625 L 110.5 262.457031 L 104.617188 259.515625 L 104.617188 253.636719 L 110.5 250.695313 L 116.378906 253.636719 Z M 116.378906 259.515625 "/>
<path style=" stroke:none;fill-rule:nonzero;fill:rgb(0%,0%,0%);fill-opacity:1;" d="M 328.078125 259.515625 L 322.195313 262.457031 L 316.316406 259.515625 L 316.316406 253.636719 L 322.195313 250.695313 L 328.078125 253.636719 Z M 328.078125 259.515625 "/>
<path style=" stroke:none;fill-rule:nonzero;fill:rgb(0%,0%,0%);fill-opacity:1;" d="M 222.226563 312.441406 L 216.347656 315.382813 L 210.46875 312.441406 L 210.46875 306.5625 L 216.347656 303.621094 L 222.226563 306.5625 Z M 222.226563 312.441406 "/>
<path style=" stroke:none;fill-rule:nonzero;fill:rgb(0%,0%,0%);fill-opacity:1;" d="M 292.792969 100.742188 L 286.914063 103.683594 L 281.035156 100.742188 L 281.035156 94.863281 L 286.914063 91.921875 L 292.792969 94.863281 Z M 292.792969 100.742188 "/>
<path style=" stroke:none;fill-rule:nonzero;fill:rgb(0%,0%,0%);fill-opacity:1;" d="M 398.644531 153.667969 L 392.761719 156.609375 L 386.882813 153.667969 L 386.882813 147.789063 L 392.761719 144.847656 L 398.644531 147.789063 Z M 398.644531 153.667969 "/>
<path style=" stroke:none;fill-rule:nonzero;fill:rgb(0%,0%,0%);fill-opacity:1;" d="M 186.945313 153.667969 L 181.066406 156.609375 L 175.183594 153.667969 L 175.183594 147.789063 L 181.066406 144.847656 L 186.945313 147.789063 Z M 186.945313 153.667969 "/>
<path style=" stroke:none;fill-rule:nonzero;fill:rgb(0%,0%,0%);fill-opacity:1;" d="M 186.945313 259.515625 L 181.066406 262.457031 L 175.183594 259.515625 L 175.183594 253.636719 L 181.066406 250.695313 L 186.945313 253.636719 Z M 186.945313 259.515625 "/>
<path style=" stroke:none;fill-rule:nonzero;fill:rgb(0%,0%,0%);fill-opacity:1;" d="M 398.644531 259.515625 L 392.761719 262.457031 L 386.882813 259.515625 L 386.882813 253.636719 L 392.761719 250.695313 L 398.644531 253.636719 Z M 398.644531 259.515625 "/>
<path style=" stroke:none;fill-rule:nonzero;fill:rgb(0%,0%,0%);fill-opacity:1;" d="M 292.792969 312.441406 L 286.914063 315.382813 L 281.035156 312.441406 L 281.035156 306.5625 L 286.914063 303.621094 L 292.792969 306.5625 Z M 292.792969 312.441406 "/>
<path style=" stroke:none;fill-rule:nonzero;fill:rgb(0%,0%,0%);fill-opacity:1;" d="M 257.511719 118.386719 L 251.628906 121.324219 L 245.75 118.386719 L 245.75 112.503906 L 251.628906 109.5625 L 257.511719 112.503906 Z M 257.511719 118.386719 "/>
<path style=" stroke:none;fill-rule:nonzero;fill:rgb(0%,0%,0%);fill-opacity:1;" d="M 363.359375 171.308594 L 357.480469 174.25 L 351.597656 171.308594 L 351.597656 165.429688 L 357.480469 162.488281 L 363.359375 165.429688 Z M 363.359375 171.308594 "/>
<path style=" stroke:none;fill-rule:nonzero;fill:rgb(0%,0%,0%);fill-opacity:1;" d="M 151.664063 171.308594 L 145.78125 174.25 L 139.902344 171.308594 L 139.902344 165.429688 L 145.78125 162.488281 L 151.664063 165.429688 Z M 151.664063 171.308594 "/>
<path style=" stroke:none;fill-rule:nonzero;fill:rgb(0%,0%,0%);fill-opacity:1;" d="M 151.664063 277.160156 L 145.78125 280.097656 L 139.902344 277.160156 L 139.902344 271.277344 L 145.78125 268.335938 L 151.664063 271.277344 Z M 151.664063 277.160156 "/>
<path style=" stroke:none;fill-rule:nonzero;fill:rgb(0%,0%,0%);fill-opacity:1;" d="M 363.359375 277.160156 L 357.480469 280.097656 L 351.597656 277.160156 L 351.597656 271.277344 L 357.480469 268.335938 L 363.359375 271.277344 Z M 363.359375 277.160156 "/>
<path style=" stroke:none;fill-rule:nonzero;fill:rgb(0%,0%,0%);fill-opacity:1;" d="M 257.511719 330.082031 L 251.628906 333.023438 L 245.75 330.082031 L 245.75 324.203125 L 251.628906 321.261719 L 257.511719 324.203125 Z M 257.511719 330.082031 "/>
<path style=" stroke:none;fill-rule:nonzero;fill:rgb(0%,0%,0%);fill-opacity:1;" d="M 245.75 53.699219 L 239.871094 56.640625 L 233.988281 53.699219 L 233.988281 47.820313 L 239.871094 44.878906 L 245.75 47.820313 Z M 245.75 53.699219 "/>
<path style=" stroke:none;fill-rule:nonzero;fill:rgb(0%,0%,0%);fill-opacity:1;" d="M 351.597656 106.625 L 345.71875 109.5625 L 339.839844 106.625 L 339.839844 100.742188 L 345.71875 97.804688 L 351.597656 100.742188 Z M 351.597656 106.625 "/>
<path style=" stroke:none;fill-rule:nonzero;fill:rgb(0%,0%,0%);fill-opacity:1;" d="M 139.902344 106.625 L 134.019531 109.5625 L 128.140625 106.625 L 128.140625 100.742188 L 134.019531 97.804688 L 139.902344 100.742188 Z M 139.902344 106.625 "/>
<path style=" stroke:none;fill-rule:nonzero;fill:rgb(0%,0%,0%);fill-opacity:1;" d="M 139.902344 212.472656 L 134.019531 215.414063 L 128.140625 212.472656 L 128.140625 206.59375 L 134.019531 203.652344 L 139.902344 206.59375 Z M 139.902344 212.472656 "/>
<path style=" stroke:none;fill-rule:nonzero;fill:rgb(0%,0%,0%);fill-opacity:1;" d="M 351.597656 212.472656 L 345.71875 215.414063 L 339.839844 212.472656 L 339.839844 206.59375 L 345.71875 203.652344 L 351.597656 206.59375 Z M 351.597656 212.472656 "/>
<path style=" stroke:none;fill-rule:nonzero;fill:rgb(0%,0%,0%);fill-opacity:1;" d="M 245.75 265.398438 L 239.871094 268.335938 L 233.988281 265.398438 L 233.988281 259.515625 L 239.871094 256.578125 L 245.75 259.515625 Z M 245.75 265.398438 "/>
<path style=" stroke:none;fill-rule:nonzero;fill:rgb(0%,0%,0%);fill-opacity:1;" d="M 281.035156 71.339844 L 275.152344 74.28125 L 269.273438 71.339844 L 269.273438 65.460938 L 275.152344 62.519531 L 281.035156 65.460938 Z M 281.035156 71.339844 "/>
<path style=" stroke:none;fill-rule:nonzero;fill:rgb(0%,0%,0%);fill-opacity:1;" d="M 386.882813 124.265625 L 381 127.207031 L 375.121094 124.265625 L 375.121094 118.386719 L 381 115.445313 L 386.882813 118.386719 Z M 386.882813 124.265625 "/>
<path style=" stroke:none;fill-rule:nonzero;fill:rgb(0%,0%,0%);fill-opacity:1;" d="M 175.183594 124.265625 L 169.304688 127.207031 L 163.421875 124.265625 L 163.421875 118.386719 L 169.304688 115.445313 L 175.183594 118.386719 Z M 175.183594 124.265625 "/>
<path style=" stroke:none;fill-rule:nonzero;fill:rgb(0%,0%,0%);fill-opacity:1;" d="M 175.183594 230.113281 L 169.304688 233.054688 L 163.421875 230.113281 L 163.421875 224.234375 L 169.304688 221.292969 L 175.183594 224.234375 Z M 175.183594 230.113281 "/>
<path style=" stroke:none;fill-rule:nonzero;fill:rgb(0%,0%,0%);fill-opacity:1;" d="M 386.882813 230.113281 L 381 233.054688 L 375.121094 230.113281 L 375.121094 224.234375 L 381 221.292969 L 386.882813 224.234375 Z M 386.882813 230.113281 "/>
<path style=" stroke:none;fill-rule:nonzero;fill:rgb(0%,0%,0%);fill-opacity:1;" d="M 281.035156 283.039063 L 275.152344 285.980469 L 269.273438 283.039063 L 269.273438 277.160156 L 275.152344 274.21875 L 281.035156 277.160156 Z M 281.035156 283.039063 "/>
<path style=" stroke:none;fill-rule:nonzero;fill:rgb(0%,0%,0%);fill-opacity:1;" d="M 210.46875 71.339844 L 204.585938 74.28125 L 198.707031 71.339844 L 198.707031 65.460938 L 204.585938 62.519531 L 210.46875 65.460938 Z M 210.46875 71.339844 "/>
<path style=" stroke:none;fill-rule:nonzero;fill:rgb(0%,0%,0%);fill-opacity:1;" d="M 316.316406 124.265625 L 310.4375 127.207031 L 304.554688 124.265625 L 304.554688 118.386719 L 310.4375 115.445313 L 316.316406 118.386719 Z M 316.316406 124.265625 "/>
<path style=" stroke:none;fill-rule:nonzero;fill:rgb(0%,0%,0%);fill-opacity:1;" d="M 104.617188 124.265625 L 98.738281 127.207031 L 92.859375 124.265625 L 92.859375 118.386719 L 98.738281 115.445313 L 104.617188 118.386719 Z M 104.617188 124.265625 "/>
<path style=" stroke:none;fill-rule:nonzero;fill:rgb(0%,0%,0%);fill-opacity:1;" d="M 104.617188 230.113281 L 98.738281 233.054688 L 92.859375 230.113281 L 92.859375 224.234375 L 98.738281 221.292969 L 104.617188 224.234375 Z M 104.617188 230.113281 "/>
<path style=" stroke:none;fill-rule:nonzero;fill:rgb(0%,0%,0%);fill-opacity:1;" d="M 316.316406 230.113281 L 310.4375 233.054688 L 304.554688 230.113281 L 304.554688 224.234375 L 310.4375 221.292969 L 316.316406 224.234375 Z M 316.316406 230.113281 "/>
<path style=" stroke:none;fill-rule:nonzero;fill:rgb(0%,0%,0%);fill-opacity:1;" d="M 210.46875 283.039063 L 204.585938 285.980469 L 198.707031 283.039063 L 198.707031 277.160156 L 204.585938 274.21875 L 210.46875 277.160156 Z M 210.46875 283.039063 "/>
<path style=" stroke:none;fill-rule:nonzero;fill:rgb(0%,0%,0%);fill-opacity:1;" d="M 210.46875 106.625 L 204.585938 109.5625 L 198.707031 106.625 L 198.707031 100.742188 L 204.585938 97.804688 L 210.46875 100.742188 Z M 210.46875 106.625 "/>
<path style=" stroke:none;fill-rule:nonzero;fill:rgb(0%,0%,0%);fill-opacity:1;" d="M 316.316406 159.546875 L 310.4375 162.488281 L 304.554688 159.546875 L 304.554688 153.667969 L 310.4375 150.726563 L 316.316406 153.667969 Z M 316.316406 159.546875 "/>
<path style=" stroke:none;fill-rule:nonzero;fill:rgb(0%,0%,0%);fill-opacity:1;" d="M 104.617188 159.546875 L 98.738281 162.488281 L 92.859375 159.546875 L 92.859375 153.667969 L 98.738281 150.726563 L 104.617188 153.667969 Z M 104.617188 159.546875 "/>
<path style=" stroke:none;fill-rule:nonzero;fill:rgb(0%,0%,0%);fill-opacity:1;" d="M 104.617188 265.398438 L 98.738281 268.335938 L 92.859375 265.398438 L 92.859375 259.515625 L 98.738281 256.578125 L 104.617188 259.515625 Z M 104.617188 265.398438 "/>
<path style=" stroke:none;fill-rule:nonzero;fill:rgb(0%,0%,0%);fill-opacity:1;" d="M 316.316406 265.398438 L 310.4375 268.335938 L 304.554688 265.398438 L 304.554688 259.515625 L 310.4375 256.578125 L 316.316406 259.515625 Z M 316.316406 265.398438 "/>
<path style=" stroke:none;fill-rule:nonzero;fill:rgb(0%,0%,0%);fill-opacity:1;" d="M 210.46875 318.320313 L 204.585938 321.261719 L 198.707031 318.320313 L 198.707031 312.441406 L 204.585938 309.5 L 210.46875 312.441406 Z M 210.46875 318.320313 "/>
<path style=" stroke:none;fill-rule:nonzero;fill:rgb(0%,0%,0%);fill-opacity:1;" d="M 281.035156 106.625 L 275.152344 109.5625 L 269.273438 106.625 L 269.273438 100.742188 L 275.152344 97.804688 L 281.035156 100.742188 Z M 281.035156 106.625 "/>
<path style=" stroke:none;fill-rule:nonzero;fill:rgb(0%,0%,0%);fill-opacity:1;" d="M 386.882813 159.546875 L 381 162.488281 L 375.121094 159.546875 L 375.121094 153.667969 L 381 150.726563 L 386.882813 153.667969 Z M 386.882813 159.546875 "/>
<path style=" stroke:none;fill-rule:nonzero;fill:rgb(0%,0%,0%);fill-opacity:1;" d="M 175.183594 159.546875 L 169.304688 162.488281 L 163.421875 159.546875 L 163.421875 153.667969 L 169.304688 150.726563 L 175.183594 153.667969 Z M 175.183594 159.546875 "/>
<path style=" stroke:none;fill-rule:nonzero;fill:rgb(0%,0%,0%);fill-opacity:1;" d="M 175.183594 265.398438 L 169.304688 268.335938 L 163.421875 265.398438 L 163.421875 259.515625 L 169.304688 256.578125 L 175.183594 259.515625 Z M 175.183594 265.398438 "/>
<path style=" stroke:none;fill-rule:nonzero;fill:rgb(0%,0%,0%);fill-opacity:1;" d="M 386.882813 265.398438 L 381 268.335938 L 375.121094 265.398438 L 375.121094 259.515625 L 381 256.578125 L 386.882813 259.515625 Z M 386.882813 265.398438 "/>
<path style=" stroke:none;fill-rule:nonzero;fill:rgb(0%,0%,0%);fill-opacity:1;" d="M 281.035156 318.320313 L 275.152344 321.261719 L 269.273438 318.320313 L 269.273438 312.441406 L 275.152344 309.5 L 281.035156 312.441406 Z M 281.035156 318.320313 "/>
<path style=" stroke:none;fill-rule:nonzero;fill:rgb(0%,0%,0%);fill-opacity:1;" d="M 245.75 124.265625 L 239.871094 127.207031 L 233.988281 124.265625 L 233.988281 118.386719 L 239.871094 115.445313 L 245.75 118.386719 Z M 245.75 124.265625 "/>
<path style=" stroke:none;fill-rule:nonzero;fill:rgb(0%,0%,0%);fill-opacity:1;" d="M 351.597656 177.191406 L 345.71875 180.128906 L 339.839844 177.191406 L 339.839844 171.308594 L 345.71875 168.371094 L 351.597656 171.308594 Z M 351.597656 177.191406 "/>
<path style=" stroke:none;fill-rule:nonzero;fill:rgb(0%,0%,0%);fill-opacity:1;" d="M 139.902344 177.191406 L 134.019531 180.128906 L 128.140625 177.191406 L 128.140625 171.308594 L 134.019531 168.371094 L 139.902344 171.308594 Z M 139.902344 177.191406 "/>
<path style=" stroke:none;fill-rule:nonzero;fill:rgb(0%,0%,0%);fill-opacity:1;" d="M 139.902344 283.039063 L 134.019531 285.980469 L 128.140625 283.039063 L 128.140625 277.160156 L 134.019531 274.21875 L 139.902344 277.160156 Z M 139.902344 283.039063 "/>
<path style=" stroke:none;fill-rule:nonzero;fill:rgb(0%,0%,0%);fill-opacity:1;" d="M 351.597656 283.039063 L 345.71875 285.980469 L 339.839844 283.039063 L 339.839844 277.160156 L 345.71875 274.21875 L 351.597656 277.160156 Z M 351.597656 283.039063 "/>
<path style=" stroke:none;fill-rule:nonzero;fill:rgb(0%,0%,0%);fill-opacity:1;" d="M 245.75 335.964844 L 239.871094 338.902344 L 233.988281 335.964844 L 233.988281 330.082031 L 239.871094 327.140625 L 245.75 330.082031 Z M 245.75 335.964844 "/>
</g>
</svg>
