<?xml version="1.0" encoding="UTF-8"?>
<svg xmlns="http://www.w3.org/2000/svg" xmlns:xlink="http://www.w3.org/1999/xlink" width="477pt" height="363pt" viewBox="0 0 477 363" version="1.1">
<g id="surface46">
<rect x="0" y="0" width="477" height="363" style="fill:rgb(100%,100%,100%);fill-opacity:1;stroke:none;"/>
<path style=" stroke:none;fill-rule:nonzero;fill:rgb(0%,0%,0%);fill-opacity:1;" d="M 292.792969 100.742188 L 239.871094 127.207031 L 186.945313 100.742188 L 186.945313 47.820313 L 239.871094 21.355469 L 292.792969 47.820313 Z M 292.792969 100.742188 "/>
<path style=" stroke:none;fill-rule:nonzero;fill:rgb(0%,0%,0%);fill-opacity:1;" d="M 398.644531 153.667969 L 345.71875 180.128906 L 292.792969 153.667969 L 292.792969 100.742188 L 345.71875 74.28125 L 398.644531 100.742188 Z M 398.644531 153.667969 "/>
<path style=" stroke:none;fill-rule:nonzero;fill:rgb(0%,0%,0%);fill-opacity:1;" d="M 186.945313 153.667969 L 134.019531 180.128906 L 81.097656 153.667969 L 81.097656 100.742188 L 134.019531 74.28125 L 186.945313 100.742188 Z M 186.945313 153.667969 "/>
<path style=" stroke:none;fill-rule:nonzero;fill:rgb(0%,0%,0%);fill-opacity:1;" d="M 186.945313 259.515625 L 134.019531 285.980469 L 81.097656 259.515625 L 81.097656 206.59375 L 134.019531 180.128906 L 186.945313 206.59375 Z M 186.945313 259.515625 "/>
<path style=" stroke:none;fill-rule:nonzero;fill:rgb(0%,0%,0%);fill-opacity:1;" d="M 398.644531 259.515625 L 345.71875 285.980469 L 292.792969 259.515625 L 292.792969 206.59375 L 345.71875 180.128906 L 398.644531 206.59375 Z M 398.644531 259.515625 "/>
<path style=" stroke:none;fill-rule:nonzero;fill:rgb(0%,0%,0%);fill-opacity:1;" d="M 292.792969 312.441406 L 239.871094 338.902344 L 186.945313 312.441406 L 186.945313 259.515625 L 239.871094 233.054688 L 292.792969 259.515625 Z M 292.792969 312.441406 "/>
</g>
</svg>
