<?xml version="1.0" encoding="UTF-8"?>
<svg xmlns="http://www.w3.org/2000/svg" xmlns:xlink="http://www.w3.org/1999/xlink" width="477pt" height="363pt" viewBox="0 0 477 363" version="1.1">
<g id="surface51">
<rect x="0" y="0" width="477" height="363" style="fill:rgb(100%,100%,100%);fill-opacity:1;stroke:none;"/>
<path style=" stroke:none;fill-rule:nonzero;fill:rgb(0%,0%,0%);fill-opacity:1;" d="M 257.511719 47.820313 L 239.871094 56.640625 L 222.226563 47.820313 L 222.226563 30.175781 L 239.871094 21.355469 L 257.511719 30.175781 Z M 257.511719 47.820313 "/>
<path style=" stroke:none;fill-rule:nonzero;fill:rgb(0%,0%,0%);fill-opacity:1;" d="M 363.359375 100.742188 L 345.71875 109.5625 L 328.078125 100.742188 L 328.078125 83.101563 L 345.71875 74.28125 L 363.359375 83.101563 Z M 363.359375 100.742188 "/>
<path style=" stroke:none;fill-rule:nonzero;fill:rgb(0%,0%,0%);fill-opacity:1;" d="M 151.664063 100.742188 L 134.019531 109.5625 L 116.378906 100.742188 L 116.378906 83.101563 L 134.019531 74.28125 L 151.664063 83.101563 Z M 151.664063 100.742188 "/>
<path style=" stroke:none;fill-rule:nonzero;fill:rgb(0%,0%,0%);fill-opacity:1;" d="M 151.664063 206.59375 L 134.019531 215.414063 L 116.378906 206.59375 L 116.378906 188.949219 L 134.019531 180.128906 L 151.664063 188.949219 Z M 151.664063 206.59375 "/>
<path style=" stroke:none;fill-rule:nonzero;fill:rgb(0%,0%,0%);fill-opacity:1;" d="M 363.359375 206.59375 L 345.71875 215.414063 L 328.078125 206.59375 L 328.078125 188.949219 L 345.71875 180.128906 L 363.359375 188.949219 Z M 363.359375 206.59375 "/>
<path style=" stroke:none;fill-rule:nonzero;fill:rgb(0%,0%,0%);fill-opacity:1;" d="M 257.511719 259.515625 L 239.871094 268.335938 L 222.226563 259.515625 L 222.226563 241.875 L 239.871094 233.054688 L 257.511719 241.875 Z M 257.511719 259.515625 "/>
<path style=" stroke:none;fill-rule:nonzero;fill:rgb(0%,0%,0%);fill-opacity:1;" d="M 292.792969 65.460938 L 275.152344 74.28125 L 257.511719 65.460938 L 257.511719 47.820313 L 275.152344 39 L 292.792969 47.820313 Z M 292.792969 65.460938 "/>
<path style=" stroke:none;fill-rule:nonzero;fill:rgb(0%,0%,0%);fill-opacity:1;" d="M 398.644531 118.386719 L 381 127.207031 L 363.359375 118.386719 L 363.359375 100.742188 L 381 91.921875 L 398.644531 100.742188 Z M 398.644531 118.386719 "/>
<path style=" stroke:none;fill-rule:nonzero;fill:rgb(0%,0%,0%);fill-opacity:1;" d="M 186.945313 118.386719 L 169.304688 127.207031 L 151.664063 118.386719 L 151.664063 100.742188 L 169.304688 91.921875 L 186.945313 100.742188 Z M 186.945313 118.386719 "/>
<path style=" stroke:none;fill-rule:nonzero;fill:rgb(0%,0%,0%);fill-opacity:1;" d="M 186.945313 224.234375 L 169.304688 233.054688 L 151.664063 224.234375 L 151.664063 206.59375 L 169.304688 197.773438 L 186.945313 206.59375 Z M 186.945313 224.234375 "/>
<path style=" stroke:none;fill-rule:nonzero;fill:rgb(0%,0%,0%);fill-opacity:1;" d="M 398.644531 224.234375 L 381 233.054688 L 363.359375 224.234375 L 363.359375 206.59375 L 381 197.773438 L 398.644531 206.59375 Z M 398.644531 224.234375 "/>
<path style=" stroke:none;fill-rule:nonzero;fill:rgb(0%,0%,0%);fill-opacity:1;" d="M 292.792969 277.160156 L 275.152344 285.980469 L 257.511719 277.160156 L 257.511719 259.515625 L 275.152344 250.695313 L 292.792969 259.515625 Z M 292.792969 277.160156 "/>
<path style=" stroke:none;fill-rule:nonzero;fill:rgb(0%,0%,0%);fill-opacity:1;" d="M 222.226563 65.460938 L 204.585938 74.28125 L 186.945313 65.460938 L 186.945313 47.820313 L 204.585938 39 L 222.226563 47.820313 Z M 222.226563 65.460938 "/>
<path style=" stroke:none;fill-rule:nonzero;fill:rgb(0%,0%,0%);fill-opacity:1;" d="M 328.078125 118.386719 L 310.4375 127.207031 L 292.792969 118.386719 L 292.792969 100.742188 L 310.4375 91.921875 L 328.078125 100.742188 Z M 328.078125 118.386719 "/>
<path style=" stroke:none;fill-rule:nonzero;fill:rgb(0%,0%,0%);fill-opacity:1;" d="M 116.378906 118.386719 L 98.738281 127.207031 L 81.097656 118.386719 L 81.097656 100.742188 L 98.738281 91.921875 L 116.378906 100.742188 Z M 116.378906 118.386719 "/>
<path style=" stroke:none;fill-rule:nonzero;fill:rgb(0%,0%,0%);fill-opacity:1;" d="M 116.378906 224.234375 L 98.738281 233.054688 L 81.097656 224.234375 L 81.097656 206.59375 L 98.738281 197.773438 L 116.378906 206.59375 Z M 116.378906 224.234375 "/>
<path style=" stroke:none;fill-rule:nonzero;fill:rgb(0%,0%,0%);fill-opacity:1;" d="M 328.078125 224.234375 L 310.4375 233.054688 L 292.792969 224.234375 L 292.792969 206.59375 L 310.4375 197.773438 L 328.078125 206.59375 Z M 328.078125 224.234375 "/>
<path style=" stroke:none;fill-rule:nonzero;fill:rgb(0%,0%,0%);fill-opacity:1;" d="M 222.226563 277.160156 L 204.585938 285.980469 L 186.945313 277.160156 L 186.945313 259.515625 L 204.585938 250.695313 L 222.226563 259.515625 Z M 222.226563 277.160156 "/>
<path style=" stroke:none;fill-rule:nonzero;fill:rgb(0%,0%,0%);fill-opacity:1;" d="M 222.226563 100.742188 L 204.585938 109.5625 L 186.945313 100.742188 L 186.945313 83.101563 L 204.585938 74.28125 L 222.226563 83.101563 Z M 222.226563 100.742188 "/>
<path style=" stroke:none;fill-rule:nonzero;fill:rgb(0%,0%,0%);fill-opacity:1;" d="M 328.078125 153.667969 L 310.4375 162.488281 L 292.792969 153.667969 L 292.792969 136.027344 L 310.4375 127.207031 L 328.078125 136.027344 Z M 328.078125 153.667969 "/>
<path style=" stroke:none;fill-rule:nonzero;fill:rgb(0%,0%,0%);fill-opacity:1;" d="M 116.378906 153.667969 L 98.738281 162.488281 L 81.097656 153.667969 L 81.097656 136.027344 L 98.738281 127.207031 L 116.378906 136.027344 Z M 116.378906 153.667969 "/>
<path style=" stroke:none;fill-rule:nonzero;fill:rgb(0%,0%,0%);fill-opacity:1;" d="M 116.378906 259.515625 L 98.738281 268.335938 L 81.097656 259.515625 L 81.097656 241.875 L 98.738281 233.054688 L 116.378906 241.875 Z M 116.378906 259.515625 "/>
<path style=" stroke:none;fill-rule:nonzero;fill:rgb(0%,0%,0%);fill-opacity:1;" d="M 328.078125 259.515625 L 310.4375 268.335938 L 292.792969 259.515625 L 292.792969 241.875 L 310.4375 233.054688 L 328.078125 241.875 Z M 328.078125 259.515625 "/>
<path style=" stroke:none;fill-rule:nonzero;fill:rgb(0%,0%,0%);fill-opacity:1;" d="M 222.226563 312.441406 L 204.585938 321.261719 L 186.945313 312.441406 L 186.945313 294.800781 L 204.585938 285.980469 L 222.226563 294.800781 Z M 222.226563 312.441406 "/>
<path style=" stroke:none;fill-rule:nonzero;fill:rgb(0%,0%,0%);fill-opacity:1;" d="M 292.792969 100.742188 L 275.152344 109.5625 L 257.511719 100.742188 L 257.511719 83.101563 L 275.152344 74.28125 L 292.792969 83.101563 Z M 292.792969 100.742188 "/>
<path style=" stroke:none;fill-rule:nonzero;fill:rgb(0%,0%,0%);fill-opacity:1;" d="M 398.644531 153.667969 L 381 162.488281 L 363.359375 153.667969 L 363.359375 136.027344 L 381 127.207031 L 398.644531 136.027344 Z M 398.644531 153.667969 "/>
<path style=" stroke:none;fill-rule:nonzero;fill:rgb(0%,0%,0%);fill-opacity:1;" d="M 186.945313 153.667969 L 169.304688 162.488281 L 151.664063 153.667969 L 151.664063 136.027344 L 169.304688 127.207031 L 186.945313 136.027344 Z M 186.945313 153.667969 "/>
<path style=" stroke:none;fill-rule:nonzero;fill:rgb(0%,0%,0%);fill-opacity:1;" d="M 186.945313 259.515625 L 169.304688 268.335938 L 151.664063 259.515625 L 151.664063 241.875 L 169.304688 233.054688 L 186.945313 241.875 Z M 186.945313 259.515625 "/>
<path style=" stroke:none;fill-rule:nonzero;fill:rgb(0%,0%,0%);fill-opacity:1;" d="M 398.644531 259.515625 L 381 268.335938 L 363.359375 259.515625 L 363.359375 241.875 L 381 233.054688 L 398.644531 241.875 Z M 398.644531 259.515625 "/>
<path style=" stroke:none;fill-rule:nonzero;fill:rgb(0%,0%,0%);fill-opacity:1;" d="M 292.792969 312.441406 L 275.152344 321.261719 L 257.511719 312.441406 L 257.511719 294.800781 L 275.152344 285.980469 L 292.792969 294.800781 Z M 292.792969 312.441406 "/>
<path style=" stroke:none;fill-rule:nonzero;fill:rgb(0%,0%,0%);fill-opacity:1;" d="M 257.511719 118.386719 L 239.871094 127.207031 L 222.226563 118.386719 L 222.226563 100.742188 L 239.871094 91.921875 L 257.511719 100.742188 Z M 257.511719 118.386719 "/>
<path style=" stroke:none;fill-rule:nonzero;fill:rgb(0%,0%,0%);fill-opacity:1;" d="M 363.359375 171.308594 L 345.71875 180.128906 L 328.078125 171.308594 L 328.078125 153.667969 L 345.71875 144.847656 L 363.359375 153.667969 Z M 363.359375 171.308594 "/>
<path style=" stroke:none;fill-rule:nonzero;fill:rgb(0%,0%,0%);fill-opacity:1;" d="M 151.664063 171.308594 L 134.019531 180.128906 L 116.378906 171.308594 L 116.378906 153.667969 L 134.019531 144.847656 L 151.664063 153.667969 Z M 151.664063 171.308594 "/>
<path style=" stroke:none;fill-rule:nonzero;fill:rgb(0%,0%,0%);fill-opacity:1;" d="M 151.664063 277.160156 L 134.019531 285.980469 L 116.378906 277.160156 L 116.378906 259.515625 L 134.019531 250.695313 L 151.664063 259.515625 Z M 151.664063 277.160156 "/>
<path style=" stroke:none;fill-rule:nonzero;fill:rgb(0%,0%,0%);fill-opacity:1;" d="M 363.359375 277.160156 L 345.71875 285.980469 L 328.078125 277.160156 L 328.078125 259.515625 L 345.71875 250.695313 L 363.359375 259.515625 Z M 363.359375 277.160156 "/>
<path style=" stroke:none;fill-rule:nonzero;fill:rgb(0%,0%,0%);fill-opacity:1;" d="M 257.511719 330.082031 L 239.871094 338.902344 L 222.226563 330.082031 L 222.226563 312.441406 L 239.871094 303.621094 L 257.511719 312.441406 Z M 257.511719 330.082031 "/>
</g>
</svg>
