<?xml version="1.0" encoding="UTF-8"?>
<svg xmlns="http://www.w3.org/2000/svg" xmlns:xlink="http://www.w3.org/1999/xlink" width="673pt" height="597pt" viewBox="0 0 673 597" version="1.1">
<g id="surface26">
<rect x="0" y="0" width="673" height="597" style="fill:rgb(100%,100%,100%);fill-opacity:1;stroke:none;"/>
<path style=" stroke:none;fill-rule:nonzero;fill:rgb(0%,0%,0%);fill-opacity:1;" d="M 299.191406 562.265625 L 174.011719 562.265625 L 135.328125 437.082031 L 236.601563 359.714844 L 337.875 437.082031 Z M 299.191406 562.265625 "/>
<path style=" stroke:none;fill-rule:nonzero;fill:rgb(0%,0%,0%);fill-opacity:1;" d="M 501.726563 562.265625 L 376.546875 562.265625 L 337.875 437.082031 L 439.136719 359.714844 L 540.410156 437.082031 Z M 501.726563 562.265625 "/>
<path style=" stroke:none;fill-rule:nonzero;fill:rgb(0%,0%,0%);fill-opacity:1;" d="M 564.324219 359.640625 L 439.144531 359.640625 L 400.460938 234.546875 L 501.734375 157.085938 L 603.007813 234.453125 Z M 564.324219 359.640625 "/>
<path style=" stroke:none;fill-rule:nonzero;fill:rgb(0%,0%,0%);fill-opacity:1;" d="M 400.460938 234.546875 L 275.28125 234.546875 L 236.597656 109.363281 L 337.871094 31.992188 L 439.144531 109.363281 Z M 400.460938 234.546875 "/>
<path style=" stroke:none;fill-rule:nonzero;fill:rgb(0%,0%,0%);fill-opacity:1;" d="M 236.597656 359.640625 L 111.414063 359.640625 L 72.734375 234.453125 L 174.007813 157.085938 L 275.28125 234.546875 Z M 236.597656 359.640625 "/>
</g>
</svg>
