<?xml version="1.0" encoding="UTF-8"?>
<svg xmlns="http://www.w3.org/2000/svg" xmlns:xlink="http://www.w3.org/1999/xlink" width="673pt" height="597pt" viewBox="0 0 673 597" version="1.1">
<g id="surface31">
<rect x="0" y="0" width="673" height="597" style="fill:rgb(100%,100%,100%);fill-opacity:1;stroke:none;"/>
<path style=" stroke:none;fill-rule:nonzero;fill:rgb(0%,0%,0%);fill-opacity:1;" d="M 221.828125 562.265625 L 174.015625 562.265625 L 159.238281 514.449219 L 197.921875 484.898438 L 236.605469 514.449219 Z M 221.828125 562.265625 "/>
<path style=" stroke:none;fill-rule:nonzero;fill:rgb(0%,0%,0%);fill-opacity:1;" d="M 424.363281 562.265625 L 376.550781 562.265625 L 361.773438 514.449219 L 400.457031 484.898438 L 439.140625 514.449219 Z M 424.363281 562.265625 "/>
<path style=" stroke:none;fill-rule:nonzero;fill:rgb(0%,0%,0%);fill-opacity:1;" d="M 486.960938 359.636719 L 439.144531 359.636719 L 424.371094 311.820313 L 463.050781 282.265625 L 501.734375 311.820313 Z M 486.960938 359.636719 "/>
<path style=" stroke:none;fill-rule:nonzero;fill:rgb(0%,0%,0%);fill-opacity:1;" d="M 323.097656 234.542969 L 275.28125 234.542969 L 260.507813 186.726563 L 299.1875 157.171875 L 337.871094 186.726563 Z M 323.097656 234.542969 "/>
<path style=" stroke:none;fill-rule:nonzero;fill:rgb(0%,0%,0%);fill-opacity:1;" d="M 159.234375 359.636719 L 111.417969 359.636719 L 96.640625 311.820313 L 135.324219 282.265625 L 174.007813 311.820313 Z M 159.234375 359.636719 "/>
<path style=" stroke:none;fill-rule:nonzero;fill:rgb(0%,0%,0%);fill-opacity:1;" d="M 299.191406 562.265625 L 251.375 562.265625 L 236.605469 514.449219 L 275.28125 484.898438 L 313.964844 514.449219 Z M 299.191406 562.265625 "/>
<path style=" stroke:none;fill-rule:nonzero;fill:rgb(0%,0%,0%);fill-opacity:1;" d="M 501.726563 562.265625 L 453.910156 562.265625 L 439.140625 514.449219 L 477.820313 484.898438 L 516.5 514.449219 Z M 501.726563 562.265625 "/>
<path style=" stroke:none;fill-rule:nonzero;fill:rgb(0%,0%,0%);fill-opacity:1;" d="M 564.320313 359.636719 L 516.507813 359.636719 L 501.734375 311.820313 L 540.414063 282.265625 L 579.097656 311.820313 Z M 564.320313 359.636719 "/>
<path style=" stroke:none;fill-rule:nonzero;fill:rgb(0%,0%,0%);fill-opacity:1;" d="M 400.457031 234.542969 L 352.644531 234.542969 L 337.871094 186.726563 L 376.550781 157.171875 L 415.234375 186.726563 Z M 400.457031 234.542969 "/>
<path style=" stroke:none;fill-rule:nonzero;fill:rgb(0%,0%,0%);fill-opacity:1;" d="M 236.59375 359.636719 L 188.78125 359.636719 L 174.007813 311.820313 L 212.6875 282.265625 L 251.371094 311.820313 Z M 236.59375 359.636719 "/>
<path style=" stroke:none;fill-rule:nonzero;fill:rgb(0%,0%,0%);fill-opacity:1;" d="M 323.101563 484.867188 L 275.285156 484.867188 L 260.507813 437.085938 L 299.191406 407.5 L 337.875 437.050781 Z M 323.101563 484.867188 "/>
<path style=" stroke:none;fill-rule:nonzero;fill:rgb(0%,0%,0%);fill-opacity:1;" d="M 525.636719 484.867188 L 477.820313 484.867188 L 463.046875 437.085938 L 501.726563 407.5 L 540.410156 437.050781 Z M 525.636719 484.867188 "/>
<path style=" stroke:none;fill-rule:nonzero;fill:rgb(0%,0%,0%);fill-opacity:1;" d="M 588.230469 282.238281 L 540.417969 282.238281 L 525.640625 234.457031 L 564.324219 204.867188 L 603.007813 234.421875 Z M 588.230469 282.238281 "/>
<path style=" stroke:none;fill-rule:nonzero;fill:rgb(0%,0%,0%);fill-opacity:1;" d="M 424.367188 157.144531 L 376.554688 157.144531 L 361.777344 109.363281 L 400.460938 79.773438 L 439.144531 109.328125 Z M 424.367188 157.144531 "/>
<path style=" stroke:none;fill-rule:nonzero;fill:rgb(0%,0%,0%);fill-opacity:1;" d="M 260.503906 282.238281 L 212.6875 282.238281 L 197.914063 234.457031 L 236.597656 204.867188 L 275.28125 234.542969 Z M 260.503906 282.238281 "/>
<path style=" stroke:none;fill-rule:nonzero;fill:rgb(0%,0%,0%);fill-opacity:1;" d="M 260.507813 437.085938 L 212.695313 437.085938 L 197.917969 389.269531 L 236.601563 359.71875 L 275.285156 389.269531 Z M 260.507813 437.085938 "/>
<path style=" stroke:none;fill-rule:nonzero;fill:rgb(0%,0%,0%);fill-opacity:1;" d="M 463.046875 437.085938 L 415.230469 437.085938 L 400.453125 389.269531 L 439.136719 359.71875 L 477.820313 389.269531 Z M 463.046875 437.085938 "/>
<path style=" stroke:none;fill-rule:nonzero;fill:rgb(0%,0%,0%);fill-opacity:1;" d="M 525.640625 234.457031 L 477.824219 234.457031 L 463.050781 186.640625 L 501.734375 157.085938 L 540.417969 186.640625 Z M 525.640625 234.457031 "/>
<path style=" stroke:none;fill-rule:nonzero;fill:rgb(0%,0%,0%);fill-opacity:1;" d="M 361.777344 109.363281 L 313.960938 109.363281 L 299.1875 61.546875 L 337.871094 31.992188 L 376.554688 61.546875 Z M 361.777344 109.363281 "/>
<path style=" stroke:none;fill-rule:nonzero;fill:rgb(0%,0%,0%);fill-opacity:1;" d="M 197.914063 234.457031 L 150.097656 234.457031 L 135.324219 186.640625 L 174.007813 157.085938 L 212.6875 186.640625 Z M 197.914063 234.457031 "/>
<path style=" stroke:none;fill-rule:nonzero;fill:rgb(0%,0%,0%);fill-opacity:1;" d="M 197.917969 484.867188 L 150.105469 484.867188 L 135.328125 437.050781 L 174.011719 407.5 L 212.695313 437.085938 Z M 197.917969 484.867188 "/>
<path style=" stroke:none;fill-rule:nonzero;fill:rgb(0%,0%,0%);fill-opacity:1;" d="M 400.453125 484.867188 L 352.640625 484.867188 L 337.875 437.050781 L 376.546875 407.5 L 415.230469 437.085938 Z M 400.453125 484.867188 "/>
<path style=" stroke:none;fill-rule:nonzero;fill:rgb(0%,0%,0%);fill-opacity:1;" d="M 463.050781 282.238281 L 415.234375 282.238281 L 400.457031 234.542969 L 439.144531 204.867188 L 477.824219 234.457031 Z M 463.050781 282.238281 "/>
<path style=" stroke:none;fill-rule:nonzero;fill:rgb(0%,0%,0%);fill-opacity:1;" d="M 299.1875 157.144531 L 251.371094 157.144531 L 236.597656 109.328125 L 275.28125 79.773438 L 313.960938 109.363281 Z M 299.1875 157.144531 "/>
<path style=" stroke:none;fill-rule:nonzero;fill:rgb(0%,0%,0%);fill-opacity:1;" d="M 135.324219 282.238281 L 87.507813 282.238281 L 72.734375 234.421875 L 111.414063 204.867188 L 150.097656 234.457031 Z M 135.324219 282.238281 "/>
</g>
</svg>
