<?xml version="1.0" encoding="UTF-8"?>
<svg xmlns="http://www.w3.org/2000/svg" xmlns:xlink="http://www.w3.org/1999/xlink" width="673pt" height="597pt" viewBox="0 0 673 597" version="1.1">
<g id="surface36">
<rect x="0" y="0" width="673" height="597" style="fill:rgb(100%,100%,100%);fill-opacity:1;stroke:none;"/>
<path style=" stroke:none;fill-rule:nonzero;fill:rgb(0%,0%,0%);fill-opacity:1;" d="M 192.277344 562.265625 L 174.015625 562.265625 L 168.371094 544.003906 L 183.148438 532.714844 L 197.921875 544.003906 Z M 192.277344 562.265625 "/>
<path style=" stroke:none;fill-rule:nonzero;fill:rgb(0%,0%,0%);fill-opacity:1;" d="M 394.8125 562.265625 L 376.550781 562.265625 L 370.90625 544.003906 L 385.683594 532.714844 L 400.457031 544.003906 Z M 394.8125 562.265625 "/>
<path style=" stroke:none;fill-rule:nonzero;fill:rgb(0%,0%,0%);fill-opacity:1;" d="M 457.410156 359.636719 L 439.144531 359.636719 L 433.503906 341.371094 L 448.277344 330.082031 L 463.054688 341.371094 Z M 457.410156 359.636719 "/>
<path style=" stroke:none;fill-rule:nonzero;fill:rgb(0%,0%,0%);fill-opacity:1;" d="M 293.546875 234.539063 L 275.28125 234.539063 L 269.640625 216.277344 L 284.414063 204.988281 L 299.191406 216.277344 Z M 293.546875 234.539063 "/>
<path style=" stroke:none;fill-rule:nonzero;fill:rgb(0%,0%,0%);fill-opacity:1;" d="M 129.683594 359.636719 L 111.417969 359.636719 L 105.773438 341.371094 L 120.550781 330.082031 L 135.324219 341.371094 Z M 129.683594 359.636719 "/>
<path style=" stroke:none;fill-rule:nonzero;fill:rgb(0%,0%,0%);fill-opacity:1;" d="M 269.640625 562.265625 L 251.375 562.265625 L 245.734375 544.003906 L 260.507813 532.714844 L 275.285156 544.003906 Z M 269.640625 562.265625 "/>
<path style=" stroke:none;fill-rule:nonzero;fill:rgb(0%,0%,0%);fill-opacity:1;" d="M 472.175781 562.265625 L 453.910156 562.265625 L 448.269531 544.003906 L 463.042969 532.714844 L 477.820313 544.003906 Z M 472.175781 562.265625 "/>
<path style=" stroke:none;fill-rule:nonzero;fill:rgb(0%,0%,0%);fill-opacity:1;" d="M 534.769531 359.636719 L 516.507813 359.636719 L 510.863281 341.371094 L 525.640625 330.082031 L 540.414063 341.371094 Z M 534.769531 359.636719 "/>
<path style=" stroke:none;fill-rule:nonzero;fill:rgb(0%,0%,0%);fill-opacity:1;" d="M 370.90625 234.539063 L 352.644531 234.539063 L 347 216.277344 L 361.777344 204.988281 L 376.550781 216.277344 Z M 370.90625 234.539063 "/>
<path style=" stroke:none;fill-rule:nonzero;fill:rgb(0%,0%,0%);fill-opacity:1;" d="M 207.042969 359.636719 L 188.78125 359.636719 L 183.136719 341.371094 L 197.914063 330.082031 L 212.6875 341.371094 Z M 207.042969 359.636719 "/>
<path style=" stroke:none;fill-rule:nonzero;fill:rgb(0%,0%,0%);fill-opacity:1;" d="M 293.550781 484.867188 L 275.285156 484.867188 L 269.640625 466.605469 L 284.417969 455.316406 L 299.191406 466.605469 Z M 293.550781 484.867188 "/>
<path style=" stroke:none;fill-rule:nonzero;fill:rgb(0%,0%,0%);fill-opacity:1;" d="M 496.085938 484.867188 L 477.820313 484.867188 L 472.175781 466.605469 L 486.953125 455.316406 L 501.730469 466.605469 Z M 496.085938 484.867188 "/>
<path style=" stroke:none;fill-rule:nonzero;fill:rgb(0%,0%,0%);fill-opacity:1;" d="M 558.679688 282.238281 L 540.417969 282.238281 L 534.773438 263.972656 L 549.550781 252.683594 L 564.324219 263.972656 Z M 558.679688 282.238281 "/>
<path style=" stroke:none;fill-rule:nonzero;fill:rgb(0%,0%,0%);fill-opacity:1;" d="M 394.816406 157.140625 L 376.554688 157.140625 L 370.910156 138.878906 L 385.683594 127.589844 L 400.460938 138.878906 Z M 394.816406 157.140625 "/>
<path style=" stroke:none;fill-rule:nonzero;fill:rgb(0%,0%,0%);fill-opacity:1;" d="M 230.953125 282.238281 L 212.691406 282.238281 L 207.046875 263.972656 L 221.820313 252.683594 L 236.597656 263.972656 Z M 230.953125 282.238281 "/>
<path style=" stroke:none;fill-rule:nonzero;fill:rgb(0%,0%,0%);fill-opacity:1;" d="M 230.960938 437.085938 L 212.695313 437.085938 L 207.050781 418.820313 L 221.828125 407.535156 L 236.601563 418.820313 Z M 230.960938 437.085938 "/>
<path style=" stroke:none;fill-rule:nonzero;fill:rgb(0%,0%,0%);fill-opacity:1;" d="M 433.496094 437.085938 L 415.230469 437.085938 L 409.585938 418.820313 L 424.363281 407.535156 L 439.136719 418.820313 Z M 433.496094 437.085938 "/>
<path style=" stroke:none;fill-rule:nonzero;fill:rgb(0%,0%,0%);fill-opacity:1;" d="M 496.089844 234.453125 L 477.828125 234.453125 L 472.183594 216.191406 L 486.957031 204.902344 L 501.734375 216.191406 Z M 496.089844 234.453125 "/>
<path style=" stroke:none;fill-rule:nonzero;fill:rgb(0%,0%,0%);fill-opacity:1;" d="M 332.226563 109.359375 L 313.964844 109.359375 L 308.320313 91.097656 L 323.09375 79.808594 L 337.871094 91.097656 Z M 332.226563 109.359375 "/>
<path style=" stroke:none;fill-rule:nonzero;fill:rgb(0%,0%,0%);fill-opacity:1;" d="M 168.363281 234.453125 L 150.101563 234.453125 L 144.457031 216.191406 L 159.230469 204.902344 L 174.007813 216.191406 Z M 168.363281 234.453125 "/>
<path style=" stroke:none;fill-rule:nonzero;fill:rgb(0%,0%,0%);fill-opacity:1;" d="M 168.367188 484.867188 L 150.105469 484.867188 L 144.460938 466.605469 L 159.238281 455.316406 L 174.011719 466.605469 Z M 168.367188 484.867188 "/>
<path style=" stroke:none;fill-rule:nonzero;fill:rgb(0%,0%,0%);fill-opacity:1;" d="M 370.90625 484.867188 L 352.640625 484.867188 L 346.996094 466.605469 L 361.773438 455.316406 L 376.546875 466.605469 Z M 370.90625 484.867188 "/>
<path style=" stroke:none;fill-rule:nonzero;fill:rgb(0%,0%,0%);fill-opacity:1;" d="M 433.5 282.238281 L 415.238281 282.238281 L 409.59375 263.972656 L 424.367188 252.683594 L 439.144531 263.972656 Z M 433.5 282.238281 "/>
<path style=" stroke:none;fill-rule:nonzero;fill:rgb(0%,0%,0%);fill-opacity:1;" d="M 269.636719 157.140625 L 251.371094 157.140625 L 245.730469 138.878906 L 260.503906 127.589844 L 275.28125 138.878906 Z M 269.636719 157.140625 "/>
<path style=" stroke:none;fill-rule:nonzero;fill:rgb(0%,0%,0%);fill-opacity:1;" d="M 105.773438 282.238281 L 87.507813 282.238281 L 81.867188 263.972656 L 96.640625 252.683594 L 111.417969 263.972656 Z M 105.773438 282.238281 "/>
<path style=" stroke:none;fill-rule:nonzero;fill:rgb(0%,0%,0%);fill-opacity:1;" d="M 221.828125 562.265625 L 203.5625 562.265625 L 197.921875 544.003906 L 212.695313 532.714844 L 227.472656 544.003906 Z M 221.828125 562.265625 "/>
<path style=" stroke:none;fill-rule:nonzero;fill:rgb(0%,0%,0%);fill-opacity:1;" d="M 424.363281 562.265625 L 406.101563 562.265625 L 400.457031 544.003906 L 415.230469 532.714844 L 430.007813 544.003906 Z M 424.363281 562.265625 "/>
<path style=" stroke:none;fill-rule:nonzero;fill:rgb(0%,0%,0%);fill-opacity:1;" d="M 486.960938 359.636719 L 468.695313 359.636719 L 463.054688 341.371094 L 477.828125 330.082031 L 492.601563 341.371094 Z M 486.960938 359.636719 "/>
<path style=" stroke:none;fill-rule:nonzero;fill:rgb(0%,0%,0%);fill-opacity:1;" d="M 323.09375 234.539063 L 304.832031 234.539063 L 299.191406 216.277344 L 313.964844 204.988281 L 328.738281 216.277344 Z M 323.09375 234.539063 "/>
<path style=" stroke:none;fill-rule:nonzero;fill:rgb(0%,0%,0%);fill-opacity:1;" d="M 159.230469 359.636719 L 140.96875 359.636719 L 135.324219 341.371094 L 150.101563 330.082031 L 164.875 341.371094 Z M 159.230469 359.636719 "/>
<path style=" stroke:none;fill-rule:nonzero;fill:rgb(0%,0%,0%);fill-opacity:1;" d="M 299.191406 562.265625 L 280.925781 562.265625 L 275.285156 544.003906 L 290.058594 532.714844 L 304.832031 544.003906 Z M 299.191406 562.265625 "/>
<path style=" stroke:none;fill-rule:nonzero;fill:rgb(0%,0%,0%);fill-opacity:1;" d="M 501.726563 562.265625 L 483.460938 562.265625 L 477.820313 544.003906 L 492.59375 532.714844 L 507.367188 544.003906 Z M 501.726563 562.265625 "/>
<path style=" stroke:none;fill-rule:nonzero;fill:rgb(0%,0%,0%);fill-opacity:1;" d="M 564.320313 359.636719 L 546.058594 359.636719 L 540.414063 341.371094 L 555.1875 330.082031 L 569.964844 341.371094 Z M 564.320313 359.636719 "/>
<path style=" stroke:none;fill-rule:nonzero;fill:rgb(0%,0%,0%);fill-opacity:1;" d="M 400.457031 234.539063 L 382.195313 234.539063 L 376.550781 216.277344 L 391.324219 204.988281 L 406.101563 216.277344 Z M 400.457031 234.539063 "/>
<path style=" stroke:none;fill-rule:nonzero;fill:rgb(0%,0%,0%);fill-opacity:1;" d="M 236.59375 359.636719 L 218.328125 359.636719 L 212.6875 341.371094 L 227.460938 330.082031 L 242.238281 341.371094 Z M 236.59375 359.636719 "/>
<path style=" stroke:none;fill-rule:nonzero;fill:rgb(0%,0%,0%);fill-opacity:1;" d="M 323.097656 484.867188 L 304.835938 484.867188 L 299.191406 466.605469 L 313.96875 455.316406 L 328.742188 466.605469 Z M 323.097656 484.867188 "/>
<path style=" stroke:none;fill-rule:nonzero;fill:rgb(0%,0%,0%);fill-opacity:1;" d="M 525.632813 484.867188 L 507.371094 484.867188 L 501.730469 466.605469 L 516.503906 455.316406 L 531.277344 466.605469 Z M 525.632813 484.867188 "/>
<path style=" stroke:none;fill-rule:nonzero;fill:rgb(0%,0%,0%);fill-opacity:1;" d="M 588.230469 282.238281 L 569.96875 282.238281 L 564.324219 263.972656 L 579.097656 252.683594 L 593.875 263.972656 Z M 588.230469 282.238281 "/>
<path style=" stroke:none;fill-rule:nonzero;fill:rgb(0%,0%,0%);fill-opacity:1;" d="M 424.367188 157.140625 L 406.101563 157.140625 L 400.460938 138.878906 L 415.234375 127.589844 L 430.011719 138.878906 Z M 424.367188 157.140625 "/>
<path style=" stroke:none;fill-rule:nonzero;fill:rgb(0%,0%,0%);fill-opacity:1;" d="M 260.503906 282.238281 L 242.238281 282.238281 L 236.597656 263.972656 L 251.371094 252.683594 L 266.148438 263.972656 Z M 260.503906 282.238281 "/>
<path style=" stroke:none;fill-rule:nonzero;fill:rgb(0%,0%,0%);fill-opacity:1;" d="M 260.507813 437.085938 L 242.246094 437.085938 L 236.601563 418.820313 L 251.375 407.535156 L 266.152344 418.820313 Z M 260.507813 437.085938 "/>
<path style=" stroke:none;fill-rule:nonzero;fill:rgb(0%,0%,0%);fill-opacity:1;" d="M 463.042969 437.085938 L 444.78125 437.085938 L 439.136719 418.820313 L 453.914063 407.535156 L 468.6875 418.820313 Z M 463.042969 437.085938 "/>
<path style=" stroke:none;fill-rule:nonzero;fill:rgb(0%,0%,0%);fill-opacity:1;" d="M 525.640625 234.453125 L 507.375 234.453125 L 501.734375 216.191406 L 516.507813 204.902344 L 531.285156 216.191406 Z M 525.640625 234.453125 "/>
<path style=" stroke:none;fill-rule:nonzero;fill:rgb(0%,0%,0%);fill-opacity:1;" d="M 361.777344 109.359375 L 343.511719 109.359375 L 337.871094 91.097656 L 352.644531 79.808594 L 367.421875 91.097656 Z M 361.777344 109.359375 "/>
<path style=" stroke:none;fill-rule:nonzero;fill:rgb(0%,0%,0%);fill-opacity:1;" d="M 197.914063 234.453125 L 179.648438 234.453125 L 174.007813 216.191406 L 188.78125 204.902344 L 203.554688 216.191406 Z M 197.914063 234.453125 "/>
<path style=" stroke:none;fill-rule:nonzero;fill:rgb(0%,0%,0%);fill-opacity:1;" d="M 197.917969 484.867188 L 179.65625 484.867188 L 174.011719 466.605469 L 188.785156 455.316406 L 203.5625 466.605469 Z M 197.917969 484.867188 "/>
<path style=" stroke:none;fill-rule:nonzero;fill:rgb(0%,0%,0%);fill-opacity:1;" d="M 400.453125 484.867188 L 382.191406 484.867188 L 376.546875 466.605469 L 391.320313 455.316406 L 406.097656 466.605469 Z M 400.453125 484.867188 "/>
<path style=" stroke:none;fill-rule:nonzero;fill:rgb(0%,0%,0%);fill-opacity:1;" d="M 463.050781 282.238281 L 444.785156 282.238281 L 439.144531 263.972656 L 453.917969 252.683594 L 468.695313 263.972656 Z M 463.050781 282.238281 "/>
<path style=" stroke:none;fill-rule:nonzero;fill:rgb(0%,0%,0%);fill-opacity:1;" d="M 299.1875 157.140625 L 280.921875 157.140625 L 275.28125 138.878906 L 290.054688 127.589844 L 304.828125 138.878906 Z M 299.1875 157.140625 "/>
<path style=" stroke:none;fill-rule:nonzero;fill:rgb(0%,0%,0%);fill-opacity:1;" d="M 135.324219 282.238281 L 117.058594 282.238281 L 111.417969 263.972656 L 126.191406 252.683594 L 140.964844 263.972656 Z M 135.324219 282.238281 "/>
<path style=" stroke:none;fill-rule:nonzero;fill:rgb(0%,0%,0%);fill-opacity:1;" d="M 230.960938 532.703125 L 212.695313 532.703125 L 207.054688 514.453125 L 221.828125 503.152344 L 236.605469 514.4375 Z M 230.960938 532.703125 "/>
<path style=" stroke:none;fill-rule:nonzero;fill:rgb(0%,0%,0%);fill-opacity:1;" d="M 433.496094 532.703125 L 415.230469 532.703125 L 409.589844 514.453125 L 424.363281 503.152344 L 439.140625 514.4375 Z M 433.496094 532.703125 "/>
<path style=" stroke:none;fill-rule:nonzero;fill:rgb(0%,0%,0%);fill-opacity:1;" d="M 496.09375 330.070313 L 477.828125 330.070313 L 472.183594 311.820313 L 486.960938 300.519531 L 501.734375 311.808594 Z M 496.09375 330.070313 "/>
<path style=" stroke:none;fill-rule:nonzero;fill:rgb(0%,0%,0%);fill-opacity:1;" d="M 332.226563 204.976563 L 313.964844 204.976563 L 308.320313 186.726563 L 323.097656 175.425781 L 337.871094 186.710938 Z M 332.226563 204.976563 "/>
<path style=" stroke:none;fill-rule:nonzero;fill:rgb(0%,0%,0%);fill-opacity:1;" d="M 168.363281 330.070313 L 150.101563 330.070313 L 144.457031 311.820313 L 159.234375 300.519531 L 174.007813 311.808594 Z M 168.363281 330.070313 "/>
<path style=" stroke:none;fill-rule:nonzero;fill:rgb(0%,0%,0%);fill-opacity:1;" d="M 308.320313 532.703125 L 290.058594 532.703125 L 284.414063 514.453125 L 299.191406 503.152344 L 313.964844 514.4375 Z M 308.320313 532.703125 "/>
<path style=" stroke:none;fill-rule:nonzero;fill:rgb(0%,0%,0%);fill-opacity:1;" d="M 510.859375 532.703125 L 492.59375 532.703125 L 486.949219 514.453125 L 501.726563 503.152344 L 516.5 514.4375 Z M 510.859375 532.703125 "/>
<path style=" stroke:none;fill-rule:nonzero;fill:rgb(0%,0%,0%);fill-opacity:1;" d="M 573.453125 330.070313 L 555.191406 330.070313 L 549.546875 311.820313 L 564.320313 300.519531 L 579.097656 311.808594 Z M 573.453125 330.070313 "/>
<path style=" stroke:none;fill-rule:nonzero;fill:rgb(0%,0%,0%);fill-opacity:1;" d="M 409.589844 204.976563 L 391.328125 204.976563 L 385.683594 186.726563 L 400.457031 175.425781 L 415.234375 186.710938 Z M 409.589844 204.976563 "/>
<path style=" stroke:none;fill-rule:nonzero;fill:rgb(0%,0%,0%);fill-opacity:1;" d="M 245.726563 330.070313 L 227.460938 330.070313 L 221.820313 311.820313 L 236.59375 300.519531 L 251.371094 311.808594 Z M 245.726563 330.070313 "/>
<path style=" stroke:none;fill-rule:nonzero;fill:rgb(0%,0%,0%);fill-opacity:1;" d="M 332.230469 455.304688 L 313.96875 455.304688 L 308.324219 437.054688 L 323.101563 425.753906 L 337.875 437.039063 Z M 332.230469 455.304688 "/>
<path style=" stroke:none;fill-rule:nonzero;fill:rgb(0%,0%,0%);fill-opacity:1;" d="M 534.765625 455.304688 L 516.503906 455.304688 L 510.859375 437.054688 L 525.636719 425.753906 L 540.410156 437.039063 Z M 534.765625 455.304688 "/>
<path style=" stroke:none;fill-rule:nonzero;fill:rgb(0%,0%,0%);fill-opacity:1;" d="M 597.363281 252.671875 L 579.097656 252.671875 L 573.457031 234.421875 L 588.230469 223.121094 L 603.007813 234.410156 Z M 597.363281 252.671875 "/>
<path style=" stroke:none;fill-rule:nonzero;fill:rgb(0%,0%,0%);fill-opacity:1;" d="M 433.5 127.578125 L 415.234375 127.578125 L 409.59375 109.328125 L 424.367188 98.027344 L 439.144531 109.3125 Z M 433.5 127.578125 "/>
<path style=" stroke:none;fill-rule:nonzero;fill:rgb(0%,0%,0%);fill-opacity:1;" d="M 269.636719 252.671875 L 251.371094 252.671875 L 245.726563 234.421875 L 260.503906 223.121094 L 275.28125 234.539063 Z M 269.636719 252.671875 "/>
<path style=" stroke:none;fill-rule:nonzero;fill:rgb(0%,0%,0%);fill-opacity:1;" d="M 269.640625 407.523438 L 251.378906 407.523438 L 245.734375 389.273438 L 260.507813 377.96875 L 275.285156 389.257813 Z M 269.640625 407.523438 "/>
<path style=" stroke:none;fill-rule:nonzero;fill:rgb(0%,0%,0%);fill-opacity:1;" d="M 472.175781 407.523438 L 453.914063 407.523438 L 448.269531 389.273438 L 463.046875 377.96875 L 477.820313 389.257813 Z M 472.175781 407.523438 "/>
<path style=" stroke:none;fill-rule:nonzero;fill:rgb(0%,0%,0%);fill-opacity:1;" d="M 534.773438 204.890625 L 516.507813 204.890625 L 510.867188 186.640625 L 525.640625 175.339844 L 540.417969 186.625 Z M 534.773438 204.890625 "/>
<path style=" stroke:none;fill-rule:nonzero;fill:rgb(0%,0%,0%);fill-opacity:1;" d="M 370.910156 79.796875 L 352.644531 79.796875 L 347 61.546875 L 361.777344 50.246094 L 376.554688 61.53125 Z M 370.910156 79.796875 "/>
<path style=" stroke:none;fill-rule:nonzero;fill:rgb(0%,0%,0%);fill-opacity:1;" d="M 207.046875 204.890625 L 188.78125 204.890625 L 183.136719 186.640625 L 197.914063 175.339844 L 212.6875 186.625 Z M 207.046875 204.890625 "/>
<path style=" stroke:none;fill-rule:nonzero;fill:rgb(0%,0%,0%);fill-opacity:1;" d="M 207.050781 455.304688 L 188.789063 455.304688 L 183.144531 437.054688 L 197.917969 425.753906 L 212.695313 437.085938 Z M 207.050781 455.304688 "/>
<path style=" stroke:none;fill-rule:nonzero;fill:rgb(0%,0%,0%);fill-opacity:1;" d="M 409.585938 455.304688 L 391.324219 455.304688 L 385.679688 437.054688 L 400.453125 425.753906 L 415.230469 437.085938 Z M 409.585938 455.304688 "/>
<path style=" stroke:none;fill-rule:nonzero;fill:rgb(0%,0%,0%);fill-opacity:1;" d="M 472.183594 252.671875 L 453.917969 252.671875 L 448.273438 234.421875 L 463.050781 223.121094 L 477.828125 234.453125 Z M 472.183594 252.671875 "/>
<path style=" stroke:none;fill-rule:nonzero;fill:rgb(0%,0%,0%);fill-opacity:1;" d="M 308.320313 127.578125 L 290.054688 127.578125 L 284.410156 109.328125 L 299.1875 98.027344 L 313.964844 109.359375 Z M 308.320313 127.578125 "/>
<path style=" stroke:none;fill-rule:nonzero;fill:rgb(0%,0%,0%);fill-opacity:1;" d="M 144.453125 252.671875 L 126.191406 252.671875 L 120.546875 234.421875 L 135.324219 223.121094 L 150.101563 234.453125 Z M 144.453125 252.671875 "/>
<path style=" stroke:none;fill-rule:nonzero;fill:rgb(0%,0%,0%);fill-opacity:1;" d="M 207.054688 514.453125 L 188.789063 514.453125 L 183.144531 496.1875 L 197.921875 484.898438 L 212.695313 496.1875 Z M 207.054688 514.453125 "/>
<path style=" stroke:none;fill-rule:nonzero;fill:rgb(0%,0%,0%);fill-opacity:1;" d="M 409.589844 514.453125 L 391.324219 514.453125 L 385.679688 496.1875 L 400.457031 484.898438 L 415.230469 496.1875 Z M 409.589844 514.453125 "/>
<path style=" stroke:none;fill-rule:nonzero;fill:rgb(0%,0%,0%);fill-opacity:1;" d="M 472.183594 311.820313 L 453.921875 311.820313 L 448.277344 293.554688 L 463.050781 282.269531 L 477.828125 293.554688 Z M 472.183594 311.820313 "/>
<path style=" stroke:none;fill-rule:nonzero;fill:rgb(0%,0%,0%);fill-opacity:1;" d="M 308.320313 186.726563 L 290.058594 186.726563 L 284.414063 168.460938 L 299.1875 157.171875 L 313.964844 168.460938 Z M 308.320313 186.726563 "/>
<path style=" stroke:none;fill-rule:nonzero;fill:rgb(0%,0%,0%);fill-opacity:1;" d="M 144.457031 311.820313 L 126.195313 311.820313 L 120.550781 293.554688 L 135.324219 282.269531 L 150.101563 293.554688 Z M 144.457031 311.820313 "/>
<path style=" stroke:none;fill-rule:nonzero;fill:rgb(0%,0%,0%);fill-opacity:1;" d="M 284.414063 514.453125 L 266.152344 514.453125 L 260.507813 496.1875 L 275.28125 484.898438 L 290.058594 496.1875 Z M 284.414063 514.453125 "/>
<path style=" stroke:none;fill-rule:nonzero;fill:rgb(0%,0%,0%);fill-opacity:1;" d="M 486.949219 514.453125 L 468.6875 514.453125 L 463.042969 496.1875 L 477.820313 484.898438 L 492.59375 496.1875 Z M 486.949219 514.453125 "/>
<path style=" stroke:none;fill-rule:nonzero;fill:rgb(0%,0%,0%);fill-opacity:1;" d="M 549.546875 311.820313 L 531.28125 311.820313 L 525.640625 293.554688 L 540.414063 282.269531 L 555.191406 293.554688 Z M 549.546875 311.820313 "/>
<path style=" stroke:none;fill-rule:nonzero;fill:rgb(0%,0%,0%);fill-opacity:1;" d="M 385.683594 186.726563 L 367.417969 186.726563 L 361.773438 168.460938 L 376.550781 157.171875 L 391.328125 168.460938 Z M 385.683594 186.726563 "/>
<path style=" stroke:none;fill-rule:nonzero;fill:rgb(0%,0%,0%);fill-opacity:1;" d="M 221.820313 311.820313 L 203.554688 311.820313 L 197.910156 293.554688 L 212.6875 282.269531 L 227.460938 293.554688 Z M 221.820313 311.820313 "/>
<path style=" stroke:none;fill-rule:nonzero;fill:rgb(0%,0%,0%);fill-opacity:1;" d="M 308.324219 437.054688 L 290.0625 437.054688 L 284.417969 418.789063 L 299.191406 407.5 L 313.96875 418.789063 Z M 308.324219 437.054688 "/>
<path style=" stroke:none;fill-rule:nonzero;fill:rgb(0%,0%,0%);fill-opacity:1;" d="M 510.859375 437.054688 L 492.597656 437.054688 L 486.953125 418.789063 L 501.726563 407.5 L 516.503906 418.789063 Z M 510.859375 437.054688 "/>
<path style=" stroke:none;fill-rule:nonzero;fill:rgb(0%,0%,0%);fill-opacity:1;" d="M 573.457031 234.421875 L 555.191406 234.421875 L 549.546875 216.15625 L 564.324219 204.871094 L 579.097656 216.15625 Z M 573.457031 234.421875 "/>
<path style=" stroke:none;fill-rule:nonzero;fill:rgb(0%,0%,0%);fill-opacity:1;" d="M 409.59375 109.328125 L 391.328125 109.328125 L 385.683594 91.0625 L 400.460938 79.773438 L 415.234375 91.0625 Z M 409.59375 109.328125 "/>
<path style=" stroke:none;fill-rule:nonzero;fill:rgb(0%,0%,0%);fill-opacity:1;" d="M 245.726563 234.421875 L 227.464844 234.421875 L 221.820313 216.15625 L 236.597656 204.871094 L 251.371094 216.15625 Z M 245.726563 234.421875 "/>
<path style=" stroke:none;fill-rule:nonzero;fill:rgb(0%,0%,0%);fill-opacity:1;" d="M 245.734375 389.273438 L 227.46875 389.273438 L 221.828125 371.007813 L 236.601563 359.71875 L 251.378906 371.007813 Z M 245.734375 389.273438 "/>
<path style=" stroke:none;fill-rule:nonzero;fill:rgb(0%,0%,0%);fill-opacity:1;" d="M 448.269531 389.273438 L 430.003906 389.273438 L 424.363281 371.007813 L 439.136719 359.71875 L 453.914063 371.007813 Z M 448.269531 389.273438 "/>
<path style=" stroke:none;fill-rule:nonzero;fill:rgb(0%,0%,0%);fill-opacity:1;" d="M 510.867188 186.640625 L 492.601563 186.640625 L 486.957031 168.375 L 501.734375 157.085938 L 516.507813 168.375 Z M 510.867188 186.640625 "/>
<path style=" stroke:none;fill-rule:nonzero;fill:rgb(0%,0%,0%);fill-opacity:1;" d="M 347 61.546875 L 328.738281 61.546875 L 323.09375 43.28125 L 337.871094 31.992188 L 352.644531 43.28125 Z M 347 61.546875 "/>
<path style=" stroke:none;fill-rule:nonzero;fill:rgb(0%,0%,0%);fill-opacity:1;" d="M 183.136719 186.640625 L 164.875 186.640625 L 159.230469 168.375 L 174.007813 157.085938 L 188.78125 168.375 Z M 183.136719 186.640625 "/>
<path style=" stroke:none;fill-rule:nonzero;fill:rgb(0%,0%,0%);fill-opacity:1;" d="M 183.144531 437.054688 L 164.878906 437.054688 L 159.234375 418.789063 L 174.011719 407.5 L 188.789063 418.789063 Z M 183.144531 437.054688 "/>
<path style=" stroke:none;fill-rule:nonzero;fill:rgb(0%,0%,0%);fill-opacity:1;" d="M 385.679688 437.054688 L 367.414063 437.054688 L 361.773438 418.789063 L 376.546875 407.5 L 391.324219 418.789063 Z M 385.679688 437.054688 "/>
<path style=" stroke:none;fill-rule:nonzero;fill:rgb(0%,0%,0%);fill-opacity:1;" d="M 448.273438 234.421875 L 430.011719 234.421875 L 424.367188 216.15625 L 439.144531 204.871094 L 453.917969 216.15625 Z M 448.273438 234.421875 "/>
<path style=" stroke:none;fill-rule:nonzero;fill:rgb(0%,0%,0%);fill-opacity:1;" d="M 284.410156 109.328125 L 266.148438 109.328125 L 260.503906 91.0625 L 275.28125 79.773438 L 290.054688 91.0625 Z M 284.410156 109.328125 "/>
<path style=" stroke:none;fill-rule:nonzero;fill:rgb(0%,0%,0%);fill-opacity:1;" d="M 120.546875 234.421875 L 102.285156 234.421875 L 96.640625 216.15625 L 111.414063 204.871094 L 126.191406 216.15625 Z M 120.546875 234.421875 "/>
<path style=" stroke:none;fill-rule:nonzero;fill:rgb(0%,0%,0%);fill-opacity:1;" d="M 183.144531 532.703125 L 164.882813 532.703125 L 159.238281 514.4375 L 174.015625 503.152344 L 188.789063 514.453125 Z M 183.144531 532.703125 "/>
<path style=" stroke:none;fill-rule:nonzero;fill:rgb(0%,0%,0%);fill-opacity:1;" d="M 385.679688 532.703125 L 367.417969 532.703125 L 361.773438 514.4375 L 376.550781 503.152344 L 391.324219 514.453125 Z M 385.679688 532.703125 "/>
<path style=" stroke:none;fill-rule:nonzero;fill:rgb(0%,0%,0%);fill-opacity:1;" d="M 448.277344 330.070313 L 430.011719 330.070313 L 424.371094 311.808594 L 439.144531 300.519531 L 453.921875 311.820313 Z M 448.277344 330.070313 "/>
<path style=" stroke:none;fill-rule:nonzero;fill:rgb(0%,0%,0%);fill-opacity:1;" d="M 284.414063 204.976563 L 266.148438 204.976563 L 260.507813 186.710938 L 275.28125 175.425781 L 290.058594 186.726563 Z M 284.414063 204.976563 "/>
<path style=" stroke:none;fill-rule:nonzero;fill:rgb(0%,0%,0%);fill-opacity:1;" d="M 120.550781 330.070313 L 102.285156 330.070313 L 96.640625 311.808594 L 111.417969 300.519531 L 126.195313 311.820313 Z M 120.550781 330.070313 "/>
<path style=" stroke:none;fill-rule:nonzero;fill:rgb(0%,0%,0%);fill-opacity:1;" d="M 260.507813 532.703125 L 242.242188 532.703125 L 236.605469 514.4375 L 251.375 503.152344 L 266.152344 514.453125 Z M 260.507813 532.703125 "/>
<path style=" stroke:none;fill-rule:nonzero;fill:rgb(0%,0%,0%);fill-opacity:1;" d="M 463.042969 532.703125 L 444.777344 532.703125 L 439.140625 514.4375 L 453.910156 503.152344 L 468.6875 514.453125 Z M 463.042969 532.703125 "/>
<path style=" stroke:none;fill-rule:nonzero;fill:rgb(0%,0%,0%);fill-opacity:1;" d="M 525.640625 330.070313 L 507.375 330.070313 L 501.734375 311.808594 L 516.507813 300.519531 L 531.28125 311.820313 Z M 525.640625 330.070313 "/>
<path style=" stroke:none;fill-rule:nonzero;fill:rgb(0%,0%,0%);fill-opacity:1;" d="M 361.773438 204.976563 L 343.511719 204.976563 L 337.871094 186.710938 L 352.644531 175.425781 L 367.417969 186.726563 Z M 361.773438 204.976563 "/>
<path style=" stroke:none;fill-rule:nonzero;fill:rgb(0%,0%,0%);fill-opacity:1;" d="M 197.910156 330.070313 L 179.648438 330.070313 L 174.007813 311.808594 L 188.78125 300.519531 L 203.554688 311.820313 Z M 197.910156 330.070313 "/>
<path style=" stroke:none;fill-rule:nonzero;fill:rgb(0%,0%,0%);fill-opacity:1;" d="M 284.417969 455.304688 L 266.152344 455.304688 L 260.507813 437.085938 L 275.285156 425.753906 L 290.0625 437.054688 Z M 284.417969 455.304688 "/>
<path style=" stroke:none;fill-rule:nonzero;fill:rgb(0%,0%,0%);fill-opacity:1;" d="M 486.953125 455.304688 L 468.6875 455.304688 L 463.042969 437.085938 L 477.820313 425.753906 L 492.597656 437.054688 Z M 486.953125 455.304688 "/>
<path style=" stroke:none;fill-rule:nonzero;fill:rgb(0%,0%,0%);fill-opacity:1;" d="M 549.546875 252.671875 L 531.285156 252.671875 L 525.640625 234.453125 L 540.417969 223.121094 L 555.191406 234.421875 Z M 549.546875 252.671875 "/>
<path style=" stroke:none;fill-rule:nonzero;fill:rgb(0%,0%,0%);fill-opacity:1;" d="M 385.683594 127.578125 L 367.421875 127.578125 L 361.777344 109.359375 L 376.554688 98.027344 L 391.328125 109.328125 Z M 385.683594 127.578125 "/>
<path style=" stroke:none;fill-rule:nonzero;fill:rgb(0%,0%,0%);fill-opacity:1;" d="M 221.820313 252.671875 L 203.558594 252.671875 L 197.914063 234.453125 L 212.6875 223.121094 L 227.464844 234.421875 Z M 221.820313 252.671875 "/>
<path style=" stroke:none;fill-rule:nonzero;fill:rgb(0%,0%,0%);fill-opacity:1;" d="M 221.828125 407.523438 L 203.5625 407.523438 L 197.917969 389.257813 L 212.695313 377.96875 L 227.46875 389.273438 Z M 221.828125 407.523438 "/>
<path style=" stroke:none;fill-rule:nonzero;fill:rgb(0%,0%,0%);fill-opacity:1;" d="M 424.363281 407.523438 L 406.097656 407.523438 L 400.453125 389.257813 L 415.230469 377.96875 L 430.003906 389.273438 Z M 424.363281 407.523438 "/>
<path style=" stroke:none;fill-rule:nonzero;fill:rgb(0%,0%,0%);fill-opacity:1;" d="M 486.957031 204.890625 L 468.695313 204.890625 L 463.050781 186.625 L 477.824219 175.339844 L 492.601563 186.640625 Z M 486.957031 204.890625 "/>
<path style=" stroke:none;fill-rule:nonzero;fill:rgb(0%,0%,0%);fill-opacity:1;" d="M 323.09375 79.796875 L 304.832031 79.796875 L 299.1875 61.53125 L 313.960938 50.246094 L 328.738281 61.546875 Z M 323.09375 79.796875 "/>
<path style=" stroke:none;fill-rule:nonzero;fill:rgb(0%,0%,0%);fill-opacity:1;" d="M 159.230469 204.890625 L 140.96875 204.890625 L 135.324219 186.625 L 150.097656 175.339844 L 164.875 186.640625 Z M 159.230469 204.890625 "/>
<path style=" stroke:none;fill-rule:nonzero;fill:rgb(0%,0%,0%);fill-opacity:1;" d="M 159.234375 455.304688 L 140.972656 455.304688 L 135.328125 437.039063 L 150.105469 425.753906 L 164.878906 437.054688 Z M 159.234375 455.304688 "/>
<path style=" stroke:none;fill-rule:nonzero;fill:rgb(0%,0%,0%);fill-opacity:1;" d="M 361.773438 455.304688 L 343.507813 455.304688 L 337.875 437.039063 L 352.640625 425.753906 L 367.414063 437.054688 Z M 361.773438 455.304688 "/>
<path style=" stroke:none;fill-rule:nonzero;fill:rgb(0%,0%,0%);fill-opacity:1;" d="M 424.367188 252.671875 L 406.105469 252.671875 L 400.457031 234.539063 L 415.234375 223.121094 L 430.011719 234.421875 Z M 424.367188 252.671875 "/>
<path style=" stroke:none;fill-rule:nonzero;fill:rgb(0%,0%,0%);fill-opacity:1;" d="M 260.503906 127.578125 L 242.242188 127.578125 L 236.597656 109.3125 L 251.371094 98.027344 L 266.148438 109.328125 Z M 260.503906 127.578125 "/>
<path style=" stroke:none;fill-rule:nonzero;fill:rgb(0%,0%,0%);fill-opacity:1;" d="M 96.640625 252.671875 L 78.375 252.671875 L 72.734375 234.410156 L 87.507813 223.121094 L 102.285156 234.421875 Z M 96.640625 252.671875 "/>
</g>
</svg>
