<?xml version="1.0" encoding="UTF-8"?>
<svg xmlns="http://www.w3.org/2000/svg" xmlns:xlink="http://www.w3.org/1999/xlink" width="673pt" height="497pt" viewBox="0 0 673 497" version="1.1">
<g id="surface6">
<rect x="0" y="0" width="673" height="497" style="fill:rgb(100%,100%,100%);fill-opacity:1;stroke:none;"/>
<path style=" stroke:none;fill-rule:nonzero;fill:rgb(0%,0%,0%);fill-opacity:1;" d="M 167.003906 466.8125 L 118.1875 466.8125 L 118.1875 417.996094 L 167.003906 417.996094 Z M 167.003906 466.8125 "/>
<path style=" stroke:none;fill-rule:nonzero;fill:rgb(0%,0%,0%);fill-opacity:1;" d="M 167.003906 320.359375 L 118.1875 320.359375 L 118.1875 271.539063 L 167.003906 271.539063 Z M 167.003906 320.359375 "/>
<path style=" stroke:none;fill-rule:nonzero;fill:rgb(0%,0%,0%);fill-opacity:1;" d="M 167.003906 173.902344 L 118.1875 173.902344 L 118.1875 125.085938 L 167.003906 125.085938 Z M 167.003906 173.902344 "/>
<path style=" stroke:none;fill-rule:nonzero;fill:rgb(0%,0%,0%);fill-opacity:1;" d="M 313.460938 466.8125 L 264.640625 466.8125 L 264.640625 417.996094 L 313.460938 417.996094 Z M 313.460938 466.8125 "/>
<path style=" stroke:none;fill-rule:nonzero;fill:rgb(0%,0%,0%);fill-opacity:1;" d="M 313.460938 173.902344 L 264.640625 173.902344 L 264.640625 125.085938 L 313.460938 125.085938 Z M 313.460938 173.902344 "/>
<path style=" stroke:none;fill-rule:nonzero;fill:rgb(0%,0%,0%);fill-opacity:1;" d="M 459.914063 466.8125 L 411.097656 466.8125 L 411.097656 417.996094 L 459.914063 417.996094 Z M 459.914063 466.8125 "/>
<path style=" stroke:none;fill-rule:nonzero;fill:rgb(0%,0%,0%);fill-opacity:1;" d="M 459.914063 320.359375 L 411.097656 320.359375 L 411.097656 271.539063 L 459.914063 271.539063 Z M 459.914063 320.359375 "/>
<path style=" stroke:none;fill-rule:nonzero;fill:rgb(0%,0%,0%);fill-opacity:1;" d="M 459.914063 173.902344 L 411.097656 173.902344 L 411.097656 125.085938 L 459.914063 125.085938 Z M 459.914063 173.902344 "/>
<path style=" stroke:none;fill-rule:nonzero;fill:rgb(0%,0%,0%);fill-opacity:1;" d="M 167.003906 417.996094 L 118.1875 417.996094 L 118.1875 369.175781 L 167.003906 369.175781 Z M 167.003906 417.996094 "/>
<path style=" stroke:none;fill-rule:nonzero;fill:rgb(0%,0%,0%);fill-opacity:1;" d="M 167.003906 271.539063 L 118.1875 271.539063 L 118.1875 222.722656 L 167.003906 222.722656 Z M 167.003906 271.539063 "/>
<path style=" stroke:none;fill-rule:nonzero;fill:rgb(0%,0%,0%);fill-opacity:1;" d="M 167.003906 125.085938 L 118.1875 125.085938 L 118.1875 76.265625 L 167.003906 76.265625 Z M 167.003906 125.085938 "/>
<path style=" stroke:none;fill-rule:nonzero;fill:rgb(0%,0%,0%);fill-opacity:1;" d="M 313.460938 417.996094 L 264.640625 417.996094 L 264.640625 369.175781 L 313.460938 369.175781 Z M 313.460938 417.996094 "/>
<path style=" stroke:none;fill-rule:nonzero;fill:rgb(0%,0%,0%);fill-opacity:1;" d="M 313.460938 125.085938 L 264.640625 125.085938 L 264.640625 76.265625 L 313.460938 76.265625 Z M 313.460938 125.085938 "/>
<path style=" stroke:none;fill-rule:nonzero;fill:rgb(0%,0%,0%);fill-opacity:1;" d="M 459.914063 417.996094 L 411.097656 417.996094 L 411.097656 369.175781 L 459.914063 369.175781 Z M 459.914063 417.996094 "/>
<path style=" stroke:none;fill-rule:nonzero;fill:rgb(0%,0%,0%);fill-opacity:1;" d="M 459.914063 271.539063 L 411.097656 271.539063 L 411.097656 222.722656 L 459.914063 222.722656 Z M 459.914063 271.539063 "/>
<path style=" stroke:none;fill-rule:nonzero;fill:rgb(0%,0%,0%);fill-opacity:1;" d="M 459.914063 125.085938 L 411.097656 125.085938 L 411.097656 76.265625 L 459.914063 76.265625 Z M 459.914063 125.085938 "/>
<path style=" stroke:none;fill-rule:nonzero;fill:rgb(0%,0%,0%);fill-opacity:1;" d="M 167.003906 369.175781 L 118.1875 369.175781 L 118.1875 320.359375 L 167.003906 320.359375 Z M 167.003906 369.175781 "/>
<path style=" stroke:none;fill-rule:nonzero;fill:rgb(0%,0%,0%);fill-opacity:1;" d="M 167.003906 222.722656 L 118.1875 222.722656 L 118.1875 173.902344 L 167.003906 173.902344 Z M 167.003906 222.722656 "/>
<path style=" stroke:none;fill-rule:nonzero;fill:rgb(0%,0%,0%);fill-opacity:1;" d="M 167.003906 76.265625 L 118.1875 76.265625 L 118.1875 27.449219 L 167.003906 27.449219 Z M 167.003906 76.265625 "/>
<path style=" stroke:none;fill-rule:nonzero;fill:rgb(0%,0%,0%);fill-opacity:1;" d="M 313.460938 369.175781 L 264.640625 369.175781 L 264.640625 320.359375 L 313.460938 320.359375 Z M 313.460938 369.175781 "/>
<path style=" stroke:none;fill-rule:nonzero;fill:rgb(0%,0%,0%);fill-opacity:1;" d="M 313.460938 76.265625 L 264.640625 76.265625 L 264.640625 27.449219 L 313.460938 27.449219 Z M 313.460938 76.265625 "/>
<path style=" stroke:none;fill-rule:nonzero;fill:rgb(0%,0%,0%);fill-opacity:1;" d="M 459.914063 369.175781 L 411.097656 369.175781 L 411.097656 320.359375 L 459.914063 320.359375 Z M 459.914063 369.175781 "/>
<path style=" stroke:none;fill-rule:nonzero;fill:rgb(0%,0%,0%);fill-opacity:1;" d="M 459.914063 222.722656 L 411.097656 222.722656 L 411.097656 173.902344 L 459.914063 173.902344 Z M 459.914063 222.722656 "/>
<path style=" stroke:none;fill-rule:nonzero;fill:rgb(0%,0%,0%);fill-opacity:1;" d="M 459.914063 76.265625 L 411.097656 76.265625 L 411.097656 27.449219 L 459.914063 27.449219 Z M 459.914063 76.265625 "/>
<path style=" stroke:none;fill-rule:nonzero;fill:rgb(0%,0%,0%);fill-opacity:1;" d="M 215.824219 466.8125 L 167.003906 466.8125 L 167.003906 417.996094 L 215.824219 417.996094 Z M 215.824219 466.8125 "/>
<path style=" stroke:none;fill-rule:nonzero;fill:rgb(0%,0%,0%);fill-opacity:1;" d="M 215.824219 320.359375 L 167.003906 320.359375 L 167.003906 271.539063 L 215.824219 271.539063 Z M 215.824219 320.359375 "/>
<path style=" stroke:none;fill-rule:nonzero;fill:rgb(0%,0%,0%);fill-opacity:1;" d="M 215.824219 173.902344 L 167.003906 173.902344 L 167.003906 125.085938 L 215.824219 125.085938 Z M 215.824219 173.902344 "/>
<path style=" stroke:none;fill-rule:nonzero;fill:rgb(0%,0%,0%);fill-opacity:1;" d="M 362.277344 466.8125 L 313.460938 466.8125 L 313.460938 417.996094 L 362.277344 417.996094 Z M 362.277344 466.8125 "/>
<path style=" stroke:none;fill-rule:nonzero;fill:rgb(0%,0%,0%);fill-opacity:1;" d="M 362.277344 173.902344 L 313.460938 173.902344 L 313.460938 125.085938 L 362.277344 125.085938 Z M 362.277344 173.902344 "/>
<path style=" stroke:none;fill-rule:nonzero;fill:rgb(0%,0%,0%);fill-opacity:1;" d="M 508.734375 466.8125 L 459.914063 466.8125 L 459.914063 417.996094 L 508.734375 417.996094 Z M 508.734375 466.8125 "/>
<path style=" stroke:none;fill-rule:nonzero;fill:rgb(0%,0%,0%);fill-opacity:1;" d="M 508.734375 320.359375 L 459.914063 320.359375 L 459.914063 271.539063 L 508.734375 271.539063 Z M 508.734375 320.359375 "/>
<path style=" stroke:none;fill-rule:nonzero;fill:rgb(0%,0%,0%);fill-opacity:1;" d="M 508.734375 173.902344 L 459.914063 173.902344 L 459.914063 125.085938 L 508.734375 125.085938 Z M 508.734375 173.902344 "/>
<path style=" stroke:none;fill-rule:nonzero;fill:rgb(0%,0%,0%);fill-opacity:1;" d="M 215.824219 369.175781 L 167.003906 369.175781 L 167.003906 320.359375 L 215.824219 320.359375 Z M 215.824219 369.175781 "/>
<path style=" stroke:none;fill-rule:nonzero;fill:rgb(0%,0%,0%);fill-opacity:1;" d="M 215.824219 222.722656 L 167.003906 222.722656 L 167.003906 173.902344 L 215.824219 173.902344 Z M 215.824219 222.722656 "/>
<path style=" stroke:none;fill-rule:nonzero;fill:rgb(0%,0%,0%);fill-opacity:1;" d="M 215.824219 76.265625 L 167.003906 76.265625 L 167.003906 27.449219 L 215.824219 27.449219 Z M 215.824219 76.265625 "/>
<path style=" stroke:none;fill-rule:nonzero;fill:rgb(0%,0%,0%);fill-opacity:1;" d="M 362.277344 369.175781 L 313.460938 369.175781 L 313.460938 320.359375 L 362.277344 320.359375 Z M 362.277344 369.175781 "/>
<path style=" stroke:none;fill-rule:nonzero;fill:rgb(0%,0%,0%);fill-opacity:1;" d="M 362.277344 76.265625 L 313.460938 76.265625 L 313.460938 27.449219 L 362.277344 27.449219 Z M 362.277344 76.265625 "/>
<path style=" stroke:none;fill-rule:nonzero;fill:rgb(0%,0%,0%);fill-opacity:1;" d="M 508.734375 369.175781 L 459.914063 369.175781 L 459.914063 320.359375 L 508.734375 320.359375 Z M 508.734375 369.175781 "/>
<path style=" stroke:none;fill-rule:nonzero;fill:rgb(0%,0%,0%);fill-opacity:1;" d="M 508.734375 222.722656 L 459.914063 222.722656 L 459.914063 173.902344 L 508.734375 173.902344 Z M 508.734375 222.722656 "/>
<path style=" stroke:none;fill-rule:nonzero;fill:rgb(0%,0%,0%);fill-opacity:1;" d="M 508.734375 76.265625 L 459.914063 76.265625 L 459.914063 27.449219 L 508.734375 27.449219 Z M 508.734375 76.265625 "/>
<path style=" stroke:none;fill-rule:nonzero;fill:rgb(0%,0%,0%);fill-opacity:1;" d="M 264.640625 466.8125 L 215.824219 466.8125 L 215.824219 417.996094 L 264.640625 417.996094 Z M 264.640625 466.8125 "/>
<path style=" stroke:none;fill-rule:nonzero;fill:rgb(0%,0%,0%);fill-opacity:1;" d="M 264.640625 320.359375 L 215.824219 320.359375 L 215.824219 271.539063 L 264.640625 271.539063 Z M 264.640625 320.359375 "/>
<path style=" stroke:none;fill-rule:nonzero;fill:rgb(0%,0%,0%);fill-opacity:1;" d="M 264.640625 173.902344 L 215.824219 173.902344 L 215.824219 125.085938 L 264.640625 125.085938 Z M 264.640625 173.902344 "/>
<path style=" stroke:none;fill-rule:nonzero;fill:rgb(0%,0%,0%);fill-opacity:1;" d="M 411.097656 466.8125 L 362.277344 466.8125 L 362.277344 417.996094 L 411.097656 417.996094 Z M 411.097656 466.8125 "/>
<path style=" stroke:none;fill-rule:nonzero;fill:rgb(0%,0%,0%);fill-opacity:1;" d="M 411.097656 173.902344 L 362.277344 173.902344 L 362.277344 125.085938 L 411.097656 125.085938 Z M 411.097656 173.902344 "/>
<path style=" stroke:none;fill-rule:nonzero;fill:rgb(0%,0%,0%);fill-opacity:1;" d="M 557.550781 466.8125 L 508.734375 466.8125 L 508.734375 417.996094 L 557.550781 417.996094 Z M 557.550781 466.8125 "/>
<path style=" stroke:none;fill-rule:nonzero;fill:rgb(0%,0%,0%);fill-opacity:1;" d="M 557.550781 320.359375 L 508.734375 320.359375 L 508.734375 271.539063 L 557.550781 271.539063 Z M 557.550781 320.359375 "/>
<path style=" stroke:none;fill-rule:nonzero;fill:rgb(0%,0%,0%);fill-opacity:1;" d="M 557.550781 173.902344 L 508.734375 173.902344 L 508.734375 125.085938 L 557.550781 125.085938 Z M 557.550781 173.902344 "/>
<path style=" stroke:none;fill-rule:nonzero;fill:rgb(0%,0%,0%);fill-opacity:1;" d="M 264.640625 417.996094 L 215.824219 417.996094 L 215.824219 369.175781 L 264.640625 369.175781 Z M 264.640625 417.996094 "/>
<path style=" stroke:none;fill-rule:nonzero;fill:rgb(0%,0%,0%);fill-opacity:1;" d="M 264.640625 271.539063 L 215.824219 271.539063 L 215.824219 222.722656 L 264.640625 222.722656 Z M 264.640625 271.539063 "/>
<path style=" stroke:none;fill-rule:nonzero;fill:rgb(0%,0%,0%);fill-opacity:1;" d="M 264.640625 125.085938 L 215.824219 125.085938 L 215.824219 76.265625 L 264.640625 76.265625 Z M 264.640625 125.085938 "/>
<path style=" stroke:none;fill-rule:nonzero;fill:rgb(0%,0%,0%);fill-opacity:1;" d="M 411.097656 417.996094 L 362.277344 417.996094 L 362.277344 369.175781 L 411.097656 369.175781 Z M 411.097656 417.996094 "/>
<path style=" stroke:none;fill-rule:nonzero;fill:rgb(0%,0%,0%);fill-opacity:1;" d="M 411.097656 125.085938 L 362.277344 125.085938 L 362.277344 76.265625 L 411.097656 76.265625 Z M 411.097656 125.085938 "/>
<path style=" stroke:none;fill-rule:nonzero;fill:rgb(0%,0%,0%);fill-opacity:1;" d="M 557.550781 417.996094 L 508.734375 417.996094 L 508.734375 369.175781 L 557.550781 369.175781 Z M 557.550781 417.996094 "/>
<path style=" stroke:none;fill-rule:nonzero;fill:rgb(0%,0%,0%);fill-opacity:1;" d="M 557.550781 271.539063 L 508.734375 271.539063 L 508.734375 222.722656 L 557.550781 222.722656 Z M 557.550781 271.539063 "/>
<path style=" stroke:none;fill-rule:nonzero;fill:rgb(0%,0%,0%);fill-opacity:1;" d="M 557.550781 125.085938 L 508.734375 125.085938 L 508.734375 76.265625 L 557.550781 76.265625 Z M 557.550781 125.085938 "/>
<path style=" stroke:none;fill-rule:nonzero;fill:rgb(0%,0%,0%);fill-opacity:1;" d="M 264.640625 369.175781 L 215.824219 369.175781 L 215.824219 320.359375 L 264.640625 320.359375 Z M 264.640625 369.175781 "/>
<path style=" stroke:none;fill-rule:nonzero;fill:rgb(0%,0%,0%);fill-opacity:1;" d="M 264.640625 222.722656 L 215.824219 222.722656 L 215.824219 173.902344 L 264.640625 173.902344 Z M 264.640625 222.722656 "/>
<path style=" stroke:none;fill-rule:nonzero;fill:rgb(0%,0%,0%);fill-opacity:1;" d="M 264.640625 76.265625 L 215.824219 76.265625 L 215.824219 27.449219 L 264.640625 27.449219 Z M 264.640625 76.265625 "/>
<path style=" stroke:none;fill-rule:nonzero;fill:rgb(0%,0%,0%);fill-opacity:1;" d="M 411.097656 369.175781 L 362.277344 369.175781 L 362.277344 320.359375 L 411.097656 320.359375 Z M 411.097656 369.175781 "/>
<path style=" stroke:none;fill-rule:nonzero;fill:rgb(0%,0%,0%);fill-opacity:1;" d="M 411.097656 76.265625 L 362.277344 76.265625 L 362.277344 27.449219 L 411.097656 27.449219 Z M 411.097656 76.265625 "/>
<path style=" stroke:none;fill-rule:nonzero;fill:rgb(0%,0%,0%);fill-opacity:1;" d="M 557.550781 369.175781 L 508.734375 369.175781 L 508.734375 320.359375 L 557.550781 320.359375 Z M 557.550781 369.175781 "/>
<path style=" stroke:none;fill-rule:nonzero;fill:rgb(0%,0%,0%);fill-opacity:1;" d="M 557.550781 222.722656 L 508.734375 222.722656 L 508.734375 173.902344 L 557.550781 173.902344 Z M 557.550781 222.722656 "/>
<path style=" stroke:none;fill-rule:nonzero;fill:rgb(0%,0%,0%);fill-opacity:1;" d="M 557.550781 76.265625 L 508.734375 76.265625 L 508.734375 27.449219 L 557.550781 27.449219 Z M 557.550781 76.265625 "/>
</g>
</svg>
