<?xml version="1.0" encoding="UTF-8"?>
<svg xmlns="http://www.w3.org/2000/svg" xmlns:xlink="http://www.w3.org/1999/xlink" width="673pt" height="497pt" viewBox="0 0 673 497" version="1.1">
<g id="surface11">
<rect x="0" y="0" width="673" height="497" style="fill:rgb(100%,100%,100%);fill-opacity:1;stroke:none;"/>
<path style=" stroke:none;fill-rule:nonzero;fill:rgb(0%,0%,0%);fill-opacity:1;" d="M 264.640625 466.8125 L 118.1875 466.8125 L 118.1875 320.359375 L 264.640625 320.359375 Z M 264.640625 466.8125 "/>
<path style=" stroke:none;fill-rule:nonzero;fill:rgb(0%,0%,0%);fill-opacity:1;" d="M 264.640625 320.359375 L 118.1875 320.359375 L 118.1875 173.902344 L 264.640625 173.902344 Z M 264.640625 320.359375 "/>
<path style=" stroke:none;fill-rule:nonzero;fill:rgb(0%,0%,0%);fill-opacity:1;" d="M 264.640625 173.902344 L 118.1875 173.902344 L 118.1875 27.449219 L 264.640625 27.449219 Z M 264.640625 173.902344 "/>
<path style=" stroke:none;fill-rule:nonzero;fill:rgb(0%,0%,0%);fill-opacity:1;" d="M 411.097656 466.8125 L 264.640625 466.8125 L 264.640625 320.359375 L 411.097656 320.359375 Z M 411.097656 466.8125 "/>
<path style=" stroke:none;fill-rule:nonzero;fill:rgb(0%,0%,0%);fill-opacity:1;" d="M 411.097656 173.902344 L 264.640625 173.902344 L 264.640625 27.449219 L 411.097656 27.449219 Z M 411.097656 173.902344 "/>
<path style=" stroke:none;fill-rule:nonzero;fill:rgb(0%,0%,0%);fill-opacity:1;" d="M 557.550781 466.8125 L 411.097656 466.8125 L 411.097656 320.359375 L 557.550781 320.359375 Z M 557.550781 466.8125 "/>
<path style=" stroke:none;fill-rule:nonzero;fill:rgb(0%,0%,0%);fill-opacity:1;" d="M 557.550781 320.359375 L 411.097656 320.359375 L 411.097656 173.902344 L 557.550781 173.902344 Z M 557.550781 320.359375 "/>
<path style=" stroke:none;fill-rule:nonzero;fill:rgb(0%,0%,0%);fill-opacity:1;" d="M 557.550781 173.902344 L 411.097656 173.902344 L 411.097656 27.449219 L 557.550781 27.449219 Z M 557.550781 173.902344 "/>
</g>
</svg>
